<?xml version="1.0" encoding="UTF-8" standalone="no"?>
<!-- Created with Inkscape (http://www.inkscape.org/) -->

<svg
   xmlns:dc="http://purl.org/dc/elements/1.1/"
   xmlns:cc="http://creativecommons.org/ns#"
   xmlns:rdf="http://www.w3.org/1999/02/22-rdf-syntax-ns#"
   xmlns:svg="http://www.w3.org/2000/svg"
   xmlns="http://www.w3.org/2000/svg"
   xmlns:sodipodi="http://sodipodi.sourceforge.net/DTD/sodipodi-0.dtd"
   xmlns:inkscape="http://www.inkscape.org/namespaces/inkscape"
   width="193.04092mm"
   height="164.79666mm"
   viewBox="0 0 193.04092 164.79665"
   version="1.1"
   id="svg8"
   inkscape:version="0.92.1 r15371"
   sodipodi:docname="about.svg">
  <defs
     id="defs2" />
  <sodipodi:namedview
     id="base"
     pagecolor="#ffffff"
     bordercolor="#666666"
     borderopacity="1.0"
     inkscape:pageopacity="0.0"
     inkscape:pageshadow="2"
     inkscape:zoom="1.4142136"
     inkscape:cx="342.70724"
     inkscape:cy="469.36777"
     inkscape:document-units="px"
     inkscape:current-layer="layer1"
     showgrid="false"
     showborder="false"
     fit-margin-top="0"
     fit-margin-left="0"
     fit-margin-right="0"
     fit-margin-bottom="0"
     inkscape:window-width="1920"
     inkscape:window-height="1017"
     inkscape:window-x="-8"
     inkscape:window-y="-8"
     inkscape:window-maximized="1" />
  <metadata
     id="metadata5">
    <rdf:RDF>
      <cc:Work
         rdf:about="">
        <dc:format>image/svg+xml</dc:format>
        <dc:type
           rdf:resource="http://purl.org/dc/dcmitype/StillImage" />
        <dc:title></dc:title>
      </cc:Work>
    </rdf:RDF>
  </metadata>
  <g
     inkscape:label="Calque 1"
     inkscape:groupmode="layer"
     id="layer1"
     transform="translate(214.3521,-57.828609)">
    <path
       inkscape:connector-curvature="0"
       style="opacity:1;fill:#0c51ca;fill-opacity:1;stroke:none;stroke-width:255.79464722;stroke-miterlimit:4;stroke-dasharray:none;stroke-opacity:1"
       d="m -51.104185,57.828609 -162.948705,124.863181 23.05544,39.93348 H -21.311171 V 109.43166 Z"
       id="rect5907" />
    <path
       style="opacity:1;fill:#b3b3b3;fill-opacity:1;fill-rule:nonzero;stroke:none;stroke-width:0.01286506;stroke-linecap:round;stroke-linejoin:round;stroke-miterlimit:4;stroke-dasharray:none;stroke-dashoffset:0;stroke-opacity:1"
       d="m -131.61745,183.77042 a 14.53752,34.992968 15 0 1 -2.11118,10.70966 14.53752,34.992968 15 0 1 -6.9411,17.33618 h 35.72693 a 34.992968,14.53752 75 0 1 -6.95392,-17.33618 34.992968,14.53752 75 0 1 -2.10263,-10.70966 z"
       id="rect4494"
       inkscape:connector-curvature="0" />
    <path
       style="opacity:0.18800001;fill:#000000;fill-opacity:1;fill-rule:nonzero;stroke:none;stroke-width:0.01286506;stroke-linecap:round;stroke-linejoin:round;stroke-miterlimit:4;stroke-dasharray:none;stroke-dashoffset:0;stroke-opacity:1"
       d="m -131.61761,183.77042 a 14.53752,34.992968 15 0 1 -2.11099,10.70942 14.53752,34.992968 15 0 1 -0.57877,1.99058 h 22.97224 a 34.992968,14.53752 75 0 1 -0.56173,-1.99058 34.992968,14.53752 75 0 1 -2.10271,-10.70942 z"
       id="path4504"
       inkscape:connector-curvature="0" />
    <rect
       style="opacity:1;fill:#cccccc;fill-opacity:1;fill-rule:nonzero;stroke:none;stroke-width:0.02645833;stroke-linecap:round;stroke-linejoin:round;stroke-miterlimit:4;stroke-dasharray:none;stroke-dashoffset:0;stroke-opacity:1"
       id="rect4485"
       width="183.09166"
       height="107.95"
       x="-214.3521"
       y="83.228798"
       ry="11.64167" />
    <path
       style="opacity:1;fill:#1a1a1a;fill-opacity:1;fill-rule:nonzero;stroke:none;stroke-width:0.02645833;stroke-linecap:round;stroke-linejoin:round;stroke-miterlimit:4;stroke-dasharray:none;stroke-dashoffset:0;stroke-opacity:1"
       d="m -202.71043,83.228762 c -6.44949,0 -11.64167,5.192182 -11.64167,11.641662 V 175.83292 H -31.26043 V 94.870424 c 0,-6.44948 -5.19218,-11.641662 -11.64167,-11.641662 z"
       id="rect4487"
       inkscape:connector-curvature="0" />
    <rect
       style="opacity:1;fill:#b7c4c8;fill-opacity:1;fill-rule:nonzero;stroke:none;stroke-width:0.02703167;stroke-linecap:round;stroke-linejoin:round;stroke-miterlimit:4;stroke-dasharray:none;stroke-dashoffset:0;stroke-opacity:1"
       id="rect4492"
       width="166.6875"
       height="76.729164"
       x="-206.15002"
       y="91.166252"
       ry="1.3096207" />
    <rect
       style="opacity:1;fill:#cccccc;fill-opacity:1;fill-rule:nonzero;stroke:none;stroke-width:0.03187776;stroke-linecap:round;stroke-linejoin:round;stroke-miterlimit:4;stroke-dasharray:none;stroke-dashoffset:0;stroke-opacity:1"
       id="rect4515"
       width="71.4375"
       height="6.3499999"
       x="-158.52502"
       y="208.9059"
       ry="3.175" />
    <rect
       style="opacity:1;fill:#f2f2f2;fill-opacity:1;fill-rule:nonzero;stroke:none;stroke-width:0.02910201;stroke-linecap:round;stroke-linejoin:round;stroke-miterlimit:4;stroke-dasharray:none;stroke-dashoffset:0;stroke-opacity:1"
       id="rect4537"
       width="143.40416"
       height="110.06667"
       x="-194.50835"
       y="57.828743" />
    <rect
       style="opacity:1;fill:#9ebfc7;fill-opacity:1;fill-rule:nonzero;stroke:none;stroke-width:0.02019188;stroke-linecap:round;stroke-linejoin:round;stroke-miterlimit:4;stroke-dasharray:none;stroke-dashoffset:0;stroke-opacity:1"
       id="rect4564"
       width="30.691668"
       height="30.691668"
       x="-190.27502"
       y="62.855881" />
    <circle
       style="opacity:1;fill:#bfd5da;fill-opacity:1;fill-rule:nonzero;stroke:none;stroke-width:0.02645833;stroke-linecap:round;stroke-linejoin:round;stroke-miterlimit:4;stroke-dasharray:none;stroke-dashoffset:0;stroke-opacity:1"
       id="path4566"
       cx="-174.9292"
       cy="78.201714"
       r="12.170834" />
    <rect
       y="96.722549"
       x="-190.27502"
       height="3.7041676"
       width="30.691668"
       id="rect4568"
       style="opacity:1;fill:#9ebfc7;fill-opacity:1;fill-rule:nonzero;stroke:none;stroke-width:0.00701474;stroke-linecap:round;stroke-linejoin:round;stroke-miterlimit:4;stroke-dasharray:none;stroke-dashoffset:0;stroke-opacity:1" />
    <rect
       style="opacity:1;fill:#9ebfc7;fill-opacity:1;fill-rule:nonzero;stroke:none;stroke-width:0.00701474;stroke-linecap:round;stroke-linejoin:round;stroke-miterlimit:4;stroke-dasharray:none;stroke-dashoffset:0;stroke-opacity:1"
       id="rect4570"
       width="30.691668"
       height="3.7041676"
       x="-190.27502"
       y="103.07254" />
    <rect
       y="62.855881"
       x="-154.29169"
       height="53.975002"
       width="97.366669"
       id="rect4572"
       style="opacity:1;fill:#cccccc;fill-opacity:1;fill-rule:nonzero;stroke:none;stroke-width:0.04769333;stroke-linecap:round;stroke-linejoin:round;stroke-miterlimit:4;stroke-dasharray:none;stroke-dashoffset:0;stroke-opacity:1" />
    <path
       style="opacity:1;fill:#cccccc;fill-opacity:1;fill-rule:nonzero;stroke:none;stroke-width:0.04769333;stroke-linecap:round;stroke-linejoin:round;stroke-miterlimit:4;stroke-dasharray:none;stroke-dashoffset:0;stroke-opacity:1"
       d="m -154.29168,121.06417 v 46.83125 h 97.36666 v -46.83125 z"
       id="rect4592"
       inkscape:connector-curvature="0" />
    <text
       xml:space="preserve"
       style="font-style:normal;font-variant:normal;font-weight:normal;font-stretch:normal;font-size:10.58333275px;line-height:1.25;font-family:Calibri;-inkscape-font-specification:'Calibri, Normal';font-variant-ligatures:normal;font-variant-caps:normal;font-variant-numeric:normal;font-feature-settings:normal;text-align:start;letter-spacing:0px;word-spacing:0px;writing-mode:lr;text-anchor:start;fill:#000000;fill-opacity:1;stroke:none;stroke-width:0.26458332;"
       x="-146.0896"
       y="132.73308"
       id="text4641"><tspan
         sodipodi:role="line"
         id="tspan4643"></tspan></text>
    <rect
       style="opacity:1;fill:#b3b3b3;fill-opacity:1;fill-rule:nonzero;stroke:none;stroke-width:0.01705864;stroke-linecap:round;stroke-linejoin:round;stroke-miterlimit:4;stroke-dasharray:none;stroke-dashoffset:0;stroke-opacity:1"
       id="rect4594"
       width="25.929167"
       height="25.929167"
       x="-149.00003"
       y="125.29757" />
    <g
       id="g6424">
      <path
         style="opacity:1;fill:#aaccff;fill-opacity:1;stroke:none;stroke-width:87.41027832;stroke-miterlimit:4;stroke-dasharray:none;stroke-opacity:1"
         d="m -144.06604,128.8603 c -0.75664,0 -1.3662,0.60956 -1.3662,1.36621 v 0.0547 2.02112 0.60103 1.42008 11.96424 c 0,0.75663 0.60956,1.36621 1.3662,1.36621 h 16.06117 c 0.75665,0 1.36621,-0.60958 1.36621,-1.36621 v -11.96424 -1.42008 -0.60103 -2.02112 -0.0547 c 0,-0.75665 -0.60956,-1.36621 -1.36621,-1.36621 h -0.0547 -15.95174 z"
         id="path5581"
         inkscape:connector-curvature="0" />
      <path
         inkscape:connector-curvature="0"
         style="opacity:1;fill:#2a7fff;fill-opacity:1;stroke:none;stroke-width:47.12846756;stroke-miterlimit:4;stroke-dasharray:none;stroke-opacity:1"
         d="m -144.01164,128.86047 c -0.78693,0 -1.42043,0.6335 -1.42043,1.4204 v 2.02136 0.60095 1.42043 h 1.42043 15.95238 1.4204 v -1.42043 -0.60095 -2.02136 c 0,-0.7869 -0.63349,-1.4204 -1.4204,-1.4204 z"
         id="path5583" />
      <circle
         style="opacity:1;fill:#003380;fill-opacity:1;stroke:none;stroke-width:87.16925812;stroke-miterlimit:4;stroke-dasharray:none;stroke-opacity:1"
         id="circle5585"
         r="1.6950444"
         cy="131.0567"
         cx="-140.74835" />
      <rect
         ry="1.2018913"
         style="opacity:1;fill:#999999;fill-opacity:1;stroke:none;stroke-width:87.41027832;stroke-miterlimit:4;stroke-dasharray:none;stroke-opacity:1"
         id="rect5587"
         width="2.4037826"
         height="5.244617"
         x="-141.95024"
         y="126.96551" />
      <circle
         cx="-131.32259"
         cy="131.0567"
         r="1.6950444"
         id="circle5589"
         style="opacity:1;fill:#003380;fill-opacity:1;stroke:none;stroke-width:87.16925812;stroke-miterlimit:4;stroke-dasharray:none;stroke-opacity:1" />
      <rect
         y="126.96551"
         x="-132.52448"
         height="5.244617"
         width="2.4037826"
         id="rect5591"
         style="opacity:1;fill:#999999;fill-opacity:1;stroke:none;stroke-width:87.41027832;stroke-miterlimit:4;stroke-dasharray:none;stroke-opacity:1"
         ry="1.2018913" />
      <g
         id="use6202"
         transform="matrix(0.1238295,0,0,0.1238295,-124.67722,120.6682)"
         inkscape:tile-x0="69.047064"
         inkscape:tile-y0="75.322724">
        <rect
           y="122.65173"
           x="-151.64586"
           height="15.875001"
           width="15.875001"
           id="rect6314"
           style="opacity:1;fill:#b3b3b3;fill-opacity:1;fill-rule:nonzero;stroke:none;stroke-width:0.01044407;stroke-linecap:round;stroke-linejoin:round;stroke-miterlimit:4;stroke-dasharray:none;stroke-dashoffset:0;stroke-opacity:1" />
      </g>
      <g
         id="use6210"
         transform="matrix(0.1238295,0,0,0.1238295,-121.45867,120.6682)"
         inkscape:tile-x0="69.047064"
         inkscape:tile-y0="75.322724">
        <rect
           y="122.65173"
           x="-151.64586"
           height="15.875001"
           width="15.875001"
           id="rect6310"
           style="opacity:1;fill:#b3b3b3;fill-opacity:1;fill-rule:nonzero;stroke:none;stroke-width:0.01044407;stroke-linecap:round;stroke-linejoin:round;stroke-miterlimit:4;stroke-dasharray:none;stroke-dashoffset:0;stroke-opacity:1" />
      </g>
      <g
         id="use6218"
         transform="matrix(0.1238295,0,0,0.1238295,-118.24012,120.6682)"
         inkscape:tile-x0="69.047064"
         inkscape:tile-y0="75.322724">
        <rect
           y="122.65173"
           x="-151.64586"
           height="15.875001"
           width="15.875001"
           id="rect6306"
           style="opacity:1;fill:#b3b3b3;fill-opacity:1;fill-rule:nonzero;stroke:none;stroke-width:0.01044407;stroke-linecap:round;stroke-linejoin:round;stroke-miterlimit:4;stroke-dasharray:none;stroke-dashoffset:0;stroke-opacity:1" />
      </g>
      <g
         id="use6226"
         transform="matrix(0.1238295,0,0,0.1238295,-115.02157,120.6682)"
         inkscape:tile-x0="69.047064"
         inkscape:tile-y0="75.322724">
        <rect
           y="122.65173"
           x="-151.64586"
           height="15.875001"
           width="15.875001"
           id="rect6302"
           style="opacity:1;fill:#b3b3b3;fill-opacity:1;fill-rule:nonzero;stroke:none;stroke-width:0.01044407;stroke-linecap:round;stroke-linejoin:round;stroke-miterlimit:4;stroke-dasharray:none;stroke-dashoffset:0;stroke-opacity:1" />
      </g>
      <g
         id="use6234"
         transform="matrix(0.1238295,0,0,0.1238295,-111.80301,120.66819)"
         inkscape:tile-x0="69.047064"
         inkscape:tile-y0="75.322724">
        <rect
           y="122.65173"
           x="-151.64586"
           height="15.875001"
           width="15.875001"
           id="rect6298"
           style="opacity:1;fill:#b3b3b3;fill-opacity:1;fill-rule:nonzero;stroke:none;stroke-width:0.01044407;stroke-linecap:round;stroke-linejoin:round;stroke-miterlimit:4;stroke-dasharray:none;stroke-dashoffset:0;stroke-opacity:1" />
      </g>
      <g
         id="use6204"
         transform="matrix(0.1238295,0,0,0.1238295,-124.67722,123.32008)"
         inkscape:tile-x0="69.047064"
         inkscape:tile-y0="75.322724">
        <rect
           y="122.65173"
           x="-151.64586"
           height="15.875001"
           width="15.875001"
           id="rect6334"
           style="opacity:1;fill:#b3b3b3;fill-opacity:1;fill-rule:nonzero;stroke:none;stroke-width:0.01044407;stroke-linecap:round;stroke-linejoin:round;stroke-miterlimit:4;stroke-dasharray:none;stroke-dashoffset:0;stroke-opacity:1" />
      </g>
      <g
         id="use6212"
         transform="matrix(0.1238295,0,0,0.1238295,-121.46391,123.32008)"
         inkscape:tile-x0="69.047064"
         inkscape:tile-y0="75.322724">
        <rect
           y="122.65173"
           x="-151.64586"
           height="15.875001"
           width="15.875001"
           id="rect6330"
           style="opacity:1;fill:#b3b3b3;fill-opacity:1;fill-rule:nonzero;stroke:none;stroke-width:0.01044407;stroke-linecap:round;stroke-linejoin:round;stroke-miterlimit:4;stroke-dasharray:none;stroke-dashoffset:0;stroke-opacity:1" />
      </g>
      <g
         id="use6220"
         transform="matrix(0.1238295,0,0,0.1238295,-118.25058,123.32008)"
         inkscape:tile-x0="69.047064"
         inkscape:tile-y0="75.322724">
        <rect
           y="122.65173"
           x="-151.64586"
           height="15.875001"
           width="15.875001"
           id="rect6326"
           style="opacity:1;fill:#b3b3b3;fill-opacity:1;fill-rule:nonzero;stroke:none;stroke-width:0.01044407;stroke-linecap:round;stroke-linejoin:round;stroke-miterlimit:4;stroke-dasharray:none;stroke-dashoffset:0;stroke-opacity:1" />
      </g>
      <g
         id="use6228"
         transform="matrix(0.1238295,0,0,0.1238295,-115.03728,123.32008)"
         inkscape:tile-x0="69.047064"
         inkscape:tile-y0="75.322724">
        <rect
           y="122.65173"
           x="-151.64586"
           height="15.875001"
           width="15.875001"
           id="rect6322"
           style="opacity:1;fill:#b3b3b3;fill-opacity:1;fill-rule:nonzero;stroke:none;stroke-width:0.01044407;stroke-linecap:round;stroke-linejoin:round;stroke-miterlimit:4;stroke-dasharray:none;stroke-dashoffset:0;stroke-opacity:1" />
      </g>
      <g
         id="use6236"
         transform="matrix(0.1238295,0,0,0.1238295,-111.82396,123.32008)"
         inkscape:tile-x0="69.047064"
         inkscape:tile-y0="75.322724">
        <rect
           y="122.65173"
           x="-151.64586"
           height="15.875001"
           width="15.875001"
           id="rect6318"
           style="opacity:1;fill:#b3b3b3;fill-opacity:1;fill-rule:nonzero;stroke:none;stroke-width:0.01044407;stroke-linecap:round;stroke-linejoin:round;stroke-miterlimit:4;stroke-dasharray:none;stroke-dashoffset:0;stroke-opacity:1" />
      </g>
      <g
         id="use6206"
         transform="matrix(0.1238295,0,0,0.1238295,-124.67722,125.97196)"
         inkscape:tile-x0="69.047064"
         inkscape:tile-y0="75.322724">
        <rect
           y="122.65173"
           x="-151.64586"
           height="15.875001"
           width="15.875001"
           id="rect6354"
           style="opacity:1;fill:#b3b3b3;fill-opacity:1;fill-rule:nonzero;stroke:none;stroke-width:0.01044407;stroke-linecap:round;stroke-linejoin:round;stroke-miterlimit:4;stroke-dasharray:none;stroke-dashoffset:0;stroke-opacity:1" />
      </g>
      <g
         id="use6214"
         transform="matrix(0.1238295,0,0,0.1238295,-121.46391,125.97196)"
         inkscape:tile-x0="69.047064"
         inkscape:tile-y0="75.322724">
        <rect
           y="122.65173"
           x="-151.64586"
           height="15.875001"
           width="15.875001"
           id="rect6350"
           style="opacity:1;fill:#b3b3b3;fill-opacity:1;fill-rule:nonzero;stroke:none;stroke-width:0.01044407;stroke-linecap:round;stroke-linejoin:round;stroke-miterlimit:4;stroke-dasharray:none;stroke-dashoffset:0;stroke-opacity:1" />
      </g>
      <g
         id="use6222"
         transform="matrix(0.1238295,0,0,0.1238295,-118.25058,125.97196)"
         inkscape:tile-x0="69.047064"
         inkscape:tile-y0="75.322724">
        <rect
           y="122.65173"
           x="-151.64586"
           height="15.875001"
           width="15.875001"
           id="rect6346"
           style="opacity:1;fill:#b3b3b3;fill-opacity:1;fill-rule:nonzero;stroke:none;stroke-width:0.01044407;stroke-linecap:round;stroke-linejoin:round;stroke-miterlimit:4;stroke-dasharray:none;stroke-dashoffset:0;stroke-opacity:1" />
      </g>
      <g
         id="use6230"
         transform="matrix(0.1238295,0,0,0.1238295,-115.03728,125.97196)"
         inkscape:tile-x0="69.047064"
         inkscape:tile-y0="75.322724">
        <rect
           y="122.65173"
           x="-151.64586"
           height="15.875001"
           width="15.875001"
           id="rect6342"
           style="opacity:1;fill:#b3b3b3;fill-opacity:1;fill-rule:nonzero;stroke:none;stroke-width:0.01044407;stroke-linecap:round;stroke-linejoin:round;stroke-miterlimit:4;stroke-dasharray:none;stroke-dashoffset:0;stroke-opacity:1" />
      </g>
      <g
         id="use6238"
         transform="matrix(0.1238295,0,0,0.1238295,-111.82396,125.97196)"
         inkscape:tile-x0="69.047064"
         inkscape:tile-y0="75.322724">
        <rect
           y="122.65173"
           x="-151.64586"
           height="15.875001"
           width="15.875001"
           id="rect6338"
           style="opacity:1;fill:#b3b3b3;fill-opacity:1;fill-rule:nonzero;stroke:none;stroke-width:0.01044407;stroke-linecap:round;stroke-linejoin:round;stroke-miterlimit:4;stroke-dasharray:none;stroke-dashoffset:0;stroke-opacity:1" />
      </g>
      <g
         id="use6208"
         transform="matrix(0.1238295,0,0,0.1238295,-124.67722,128.62386)"
         inkscape:tile-x0="69.047064"
         inkscape:tile-y0="75.322724">
        <rect
           y="122.65173"
           x="-151.64586"
           height="15.875001"
           width="15.875001"
           id="rect6374"
           style="opacity:1;fill:#b3b3b3;fill-opacity:1;fill-rule:nonzero;stroke:none;stroke-width:0.01044407;stroke-linecap:round;stroke-linejoin:round;stroke-miterlimit:4;stroke-dasharray:none;stroke-dashoffset:0;stroke-opacity:1" />
      </g>
      <g
         id="use6216"
         transform="matrix(0.1238295,0,0,0.1238295,-121.45867,128.62386)"
         inkscape:tile-x0="69.047064"
         inkscape:tile-y0="75.322724">
        <rect
           y="122.65173"
           x="-151.64586"
           height="15.875001"
           width="15.875001"
           id="rect6370"
           style="opacity:1;fill:#b3b3b3;fill-opacity:1;fill-rule:nonzero;stroke:none;stroke-width:0.01044407;stroke-linecap:round;stroke-linejoin:round;stroke-miterlimit:4;stroke-dasharray:none;stroke-dashoffset:0;stroke-opacity:1" />
      </g>
      <g
         id="use6224"
         transform="matrix(0.1238295,0,0,0.1238295,-118.24012,128.62386)"
         inkscape:tile-x0="69.047064"
         inkscape:tile-y0="75.322724">
        <rect
           y="122.65173"
           x="-151.64586"
           height="15.875001"
           width="15.875001"
           id="rect6366"
           style="opacity:1;fill:#b3b3b3;fill-opacity:1;fill-rule:nonzero;stroke:none;stroke-width:0.01044407;stroke-linecap:round;stroke-linejoin:round;stroke-miterlimit:4;stroke-dasharray:none;stroke-dashoffset:0;stroke-opacity:1" />
      </g>
      <g
         id="use6232"
         transform="matrix(0.1238295,0,0,0.1238295,-115.02157,128.62386)"
         inkscape:tile-x0="69.047064"
         inkscape:tile-y0="75.322724">
        <rect
           y="122.65173"
           x="-151.64586"
           height="15.875001"
           width="15.875001"
           id="rect6362"
           style="opacity:1;fill:#b3b3b3;fill-opacity:1;fill-rule:nonzero;stroke:none;stroke-width:0.01044407;stroke-linecap:round;stroke-linejoin:round;stroke-miterlimit:4;stroke-dasharray:none;stroke-dashoffset:0;stroke-opacity:1" />
      </g>
      <g
         id="use6240"
         transform="matrix(0.1238295,0,0,0.1238295,-111.80301,128.62386)"
         inkscape:tile-x0="69.047064"
         inkscape:tile-y0="75.322724">
        <rect
           y="122.65173"
           x="-151.64586"
           height="15.875001"
           width="15.875001"
           id="rect6358"
           style="opacity:1;fill:#b3b3b3;fill-opacity:1;fill-rule:nonzero;stroke:none;stroke-width:0.01044407;stroke-linecap:round;stroke-linejoin:round;stroke-miterlimit:4;stroke-dasharray:none;stroke-dashoffset:0;stroke-opacity:1" />
      </g>
    </g>
    <rect
       y="125.29757"
       x="-118.57295"
       height="25.929167"
       width="25.929167"
       id="rect6478"
       style="opacity:1;fill:#b3b3b3;fill-opacity:1;fill-rule:nonzero;stroke:none;stroke-width:0.01705864;stroke-linecap:round;stroke-linejoin:round;stroke-miterlimit:4;stroke-dasharray:none;stroke-dashoffset:0;stroke-opacity:1" />
    <rect
       style="opacity:1;fill:#b3b3b3;fill-opacity:1;fill-rule:nonzero;stroke:none;stroke-width:0.01705864;stroke-linecap:round;stroke-linejoin:round;stroke-miterlimit:4;stroke-dasharray:none;stroke-dashoffset:0;stroke-opacity:1"
       id="rect6480"
       width="25.929167"
       height="25.929167"
       x="-88.145866"
       y="125.29757" />
    <g
       id="g6476"
       transform="matrix(1.0613477,0,0,1.0613477,-274.82109,12.606326)">
      <g
         transform="matrix(0.77695502,0,0,0.77695502,59.807701,26.579021)"
         id="g6466">
        <path
           sodipodi:type="star"
           style="opacity:1;fill:#ff7f2a;fill-opacity:1;stroke:none;stroke-width:52.91666412;stroke-miterlimit:4;stroke-dasharray:none;stroke-opacity:1"
           id="path6462"
           sodipodi:sides="9"
           sodipodi:cx="132.31821"
           sodipodi:cy="116.79193"
           sodipodi:r1="9.9382591"
           sodipodi:r2="7.7033997"
           sodipodi:arg1="-0.65866706"
           sodipodi:arg2="-0.33576568"
           inkscape:flatsided="false"
           inkscape:rounded="0.26"
           inkscape:randomized="0"
           d="m 140.17747,110.70909 c 0.59087,0.72349 -0.87064,2.65493 -0.58603,3.54463 0.31335,0.9796 2.67096,1.90191 2.65729,2.93032 -0.0124,0.93403 -2.37351,1.47416 -2.72738,2.33865 -0.38962,0.95184 0.82356,3.17382 0.15203,3.95283 -0.60989,0.70753 -2.76578,-0.39639 -3.59254,0.0384 -0.9103,0.4787 -1.40921,2.96065 -2.42437,3.12576 -0.922,0.14996 -1.86392,-2.08145 -2.77672,-2.27983 -1.00504,-0.21842 -2.98259,1.36217 -3.86638,0.83612 -0.80268,-0.47777 -0.0899,-2.79259 -0.66164,-3.5313 -0.62951,-0.81335 -3.16039,-0.87369 -3.49927,-1.84475 -0.30779,-0.88195 1.72617,-2.19704 1.76303,-3.13043 0.0406,-1.0277 -1.8594,-2.70074 -1.49481,-3.66245 0.33113,-0.87345 2.73455,-0.57347 3.36276,-1.26479 0.69167,-0.76118 0.31162,-3.26409 1.20908,-3.76645 0.81511,-0.45626 2.46341,1.31844 3.38902,1.19265 1.01913,-0.13849 2.33683,-2.30012 3.34723,-2.10807 0.91769,0.17442 1.03961,2.59343 1.82952,3.09204 0.86972,0.54899 3.26861,-0.25992 3.91918,0.53668 z"
           inkscape:transform-center-x="-0.043925522"
           transform="rotate(105,132.27705,116.92379)"
           inkscape:transform-center-y="-0.39792545" />
        <path
           style="opacity:1;fill:#ffcc00;fill-opacity:1;stroke:none;stroke-width:55.51062012;stroke-miterlimit:4;stroke-dasharray:none;stroke-opacity:1"
           id="path6454"
           sodipodi:type="arc"
           sodipodi:cx="132.31821"
           sodipodi:cy="116.79193"
           sodipodi:rx="7.0776038"
           sodipodi:ry="7.0776038"
           sodipodi:start="0"
           sodipodi:end="6.2761516"
           sodipodi:open="true"
           d="m 139.39581,116.79193 a 7.0776038,7.0776038 0 0 1 -7.06516,7.07759 7.0776038,7.0776038 0 0 1 -7.09,-7.0527 7.0776038,7.0776038 0 0 1 7.04022,-7.10239 7.0776038,7.0776038 0 0 1 7.11477,7.02772" />
      </g>
      <path
         inkscape:connector-curvature="0"
         id="path6441"
         d="m 154.43827,113.39236 a 3.807278,3.807278 0 0 0 -3.78715,3.8207 3.807278,3.807278 0 0 0 0.10065,0.83597 2.9771198,2.9771198 0 0 0 -2.10448,2.85367 2.9771198,2.9771198 0 0 0 2.98248,2.96683 2.9771198,2.9771198 0 0 0 0.003,0 2.9771198,2.9771198 0 0 0 -0.008,0.18205 2.9771198,2.9771198 0 0 0 2.98248,2.96683 2.9771198,2.9771198 0 0 0 2.71458,-1.77125 2.9771198,2.9771198 0 0 0 1.57934,0.45445 2.9771198,2.9771198 0 0 0 2.96684,-2.87962 2.9771198,2.9771198 0 0 0 1.61335,0.47502 2.9771198,2.9771198 0 0 0 2.97176,-2.97712 v -0.021 a 2.9771198,2.9771198 0 0 0 -2.99279,-2.9561 2.9771198,2.9771198 0 0 0 -0.49021,0.0438 2.9771198,2.9771198 0 0 0 -2.94493,-2.44843 2.9771198,2.9771198 0 0 0 -2.04138,0.82748 3.807278,3.807278 0 0 0 -3.54518,-2.37329 z"
         style="opacity:1;fill:#aaccff;fill-opacity:1;stroke:none;stroke-width:58.57350922;stroke-miterlimit:4;stroke-dasharray:none;stroke-opacity:1" />
    </g>
    <rect
       y="155.60593"
       x="-88.145866"
       height="12.271695"
       width="25.929167"
       id="rect6482"
       style="opacity:1;fill:#b3b3b3;fill-opacity:1;fill-rule:nonzero;stroke:none;stroke-width:0.01173552;stroke-linecap:round;stroke-linejoin:round;stroke-miterlimit:4;stroke-dasharray:none;stroke-dashoffset:0;stroke-opacity:1" />
    <rect
       style="opacity:1;fill:#b3b3b3;fill-opacity:1;fill-rule:nonzero;stroke:none;stroke-width:0.01173552;stroke-linecap:round;stroke-linejoin:round;stroke-miterlimit:4;stroke-dasharray:none;stroke-dashoffset:0;stroke-opacity:1"
       id="rect6484"
       width="25.929167"
       height="12.271695"
       x="-118.45423"
       y="155.60593" />
    <rect
       y="155.60593"
       x="-149.13676"
       height="12.271695"
       width="25.929167"
       id="rect6486"
       style="opacity:1;fill:#b3b3b3;fill-opacity:1;fill-rule:nonzero;stroke:none;stroke-width:0.01173552;stroke-linecap:round;stroke-linejoin:round;stroke-miterlimit:4;stroke-dasharray:none;stroke-dashoffset:0;stroke-opacity:1" />
    <rect
       style="opacity:1;fill:#b3b3b3;fill-opacity:1;fill-rule:nonzero;stroke:none;stroke-width:0.00550659;stroke-linecap:round;stroke-linejoin:round;stroke-miterlimit:4;stroke-dasharray:none;stroke-dashoffset:0;stroke-opacity:1"
       id="rect6587"
       width="38.399353"
       height="92.980507"
       x="70.643707"
       y="58.652714"
       transform="rotate(90)" />
    <rect
       style="opacity:1;fill:#808080;fill-opacity:1;fill-rule:nonzero;stroke:none;stroke-width:0.04769333;stroke-linecap:round;stroke-linejoin:round;stroke-miterlimit:4;stroke-dasharray:none;stroke-dashoffset:0;stroke-opacity:1"
       id="rect6593"
       width="85.63649"
       height="22.200197"
       x="-148.55891"
       y="78.743286" />
    <g
       id="g6543"
       transform="matrix(0.13379426,0,0,0.13379426,-189.06985,66.497458)">
      <rect
         y="110.99125"
         x="324.1785"
         height="126.99998"
         width="126.99999"
         id="rect6501"
         style="opacity:1;fill:#000000;fill-opacity:1;stroke:none;stroke-width:118.29444885;stroke-miterlimit:4;stroke-dasharray:none;stroke-opacity:1" />
      <path
         inkscape:connector-curvature="0"
         id="path6499"
         d="m 324.17851,174.49124 v -63.49999 h 63.49999 63.5 v 63.49999 63.49998 h -63.5 -63.49999 z m 54.74611,53.30638 c 2.38636,-0.22676 5.47827,-1.26469 7.31942,-2.45708 3.26567,-2.11496 5.36835,-5.1992 6.52728,-9.57432 0.5952,-2.24697 0.59572,-2.26843 0.59572,-24.34166 v -22.0927 l -6.01192,-0.0711 -6.01193,-0.0711 -0.0735,21.89921 c -0.0685,20.41777 -0.10567,21.97057 -0.54914,22.95394 -1.07821,2.39087 -2.39558,3.15232 -5.47747,3.16604 -1.82628,0.008 -2.45496,-0.0999 -3.34501,-0.5749 -1.25146,-0.66783 -2.71979,-2.27665 -3.7519,-4.11088 -0.38957,-0.69232 -0.84668,-1.20608 -1.01581,-1.14169 -0.16913,0.0644 -2.40566,1.38726 -4.97007,2.93972 l -4.66256,2.82266 0.7063,1.22946 c 3.23528,5.63157 8.37083,8.93153 14.88305,9.56344 1.99169,0.19326 2.45692,0.18218 5.83753,-0.13905 z m 45.38395,0.13455 c 8.59022,-0.8352 14.40183,-4.9915 16.45629,-11.76907 0.3628,-1.19686 0.47839,-2.4339 0.46974,-5.02709 -0.0101,-3.03413 -0.0959,-3.68372 -0.72737,-5.51069 -2.03212,-5.87903 -5.8289,-9.03452 -16.31622,-13.56038 -3.88643,-1.67721 -6.39142,-3.00207 -7.3771,-3.90166 -1.93576,-1.7667 -2.11128,-5.46109 -0.35188,-7.40666 1.36027,-1.50422 4.32821,-2.02907 7.05921,-1.24836 1.32572,0.37898 3.25088,2.00918 4.52668,3.83314 l 0.54586,0.78038 4.54453,-2.89704 c 2.49949,-1.59337 4.54496,-3.0177 4.54549,-3.16516 0.002,-0.47331 -1.77918,-2.93003 -3.12714,-4.31394 -1.79778,-1.84571 -4.23359,-3.35901 -6.77303,-4.20789 -1.99322,-0.66629 -2.44979,-0.7149 -6.76762,-0.72047 -4.40258,-0.006 -4.73427,0.0305 -6.74688,0.73661 -3.80959,1.33653 -6.35996,3.22676 -8.33216,6.17545 -2.32698,3.47912 -3.13398,7.78618 -2.29088,12.22668 1.23867,6.52383 5.14024,10.52714 14.06262,14.42928 4.91772,2.15073 8.1518,3.74867 9.29145,4.59085 2.14156,1.58257 2.88031,4.82174 1.61249,7.07028 -0.77692,1.37791 -2.71774,2.66146 -4.62272,3.05721 -2.06873,0.42977 -5.65185,0.18412 -7.47184,-0.51226 -2.37159,-0.90744 -4.82867,-3.06715 -6.62532,-5.82349 l -0.4076,-0.62533 -4.61948,2.69965 c -2.54071,1.48481 -4.72681,2.80389 -4.85799,2.93129 -0.34111,0.33126 1.2507,2.84506 3.09682,4.89055 3.68096,4.07846 9.0721,6.65504 15.14552,7.23848 3.28307,0.3154 3.12733,0.31463 6.05853,0.0296 z"
         style="fill:#f7df1e;fill-opacity:1;stroke-width:0.26458332" />
    </g>
    <g
       id="g6566"
       transform="matrix(0.06282929,0,0,0.06282929,-113.25952,81.30369)">
      <path
         id="path6549"
         d="M 0.1,45.522 125.908,0.697 255.104,44.725 234.185,211.175 125.908,271.141 19.325,211.972 Z"
         inkscape:connector-curvature="0"
         style="fill:#e23237" />
      <path
         id="path6551"
         d="M 255.104,44.725 125.908,0.697 v 270.444 l 108.277,-59.866 z"
         inkscape:connector-curvature="0"
         style="fill:#b52e31" />
      <path
         id="path6553"
         d="m 126.107,32.274 -78.393,174.419 29.285,-0.498 15.739,-39.347 h 70.325 l 17.233,39.845 27.99,0.498 z m 0.2,55.882 26.496,55.383 h -49.806 z"
         inkscape:connector-curvature="0"
         style="fill:#ffffff" />
    </g>
    <g
       id="g6572"
       transform="matrix(0.06051691,0,0,0.06051691,-82.041896,81.312109)"
       style="fill:#8cc84b">
      <path
         id="path6568"
         d="m 116.504,3.58 c 6.962,-3.985 16.03,-4.003 22.986,0 34.995,19.774 70.001,39.517 104.99,59.303 6.581,3.707 10.983,11.031 10.916,18.614 v 118.968 c 0.049,7.897 -4.788,15.396 -11.731,19.019 -34.88,19.665 -69.742,39.354 -104.616,59.019 -7.106,4.063 -16.356,3.75 -23.24,-0.646 -10.457,-6.062 -20.932,-12.094 -31.39,-18.15 -2.137,-1.274 -4.546,-2.288 -6.055,-4.36 1.334,-1.798 3.719,-2.022 5.657,-2.807 4.365,-1.388 8.374,-3.616 12.384,-5.778 1.014,-0.694 2.252,-0.428 3.224,0.193 8.942,5.127 17.805,10.403 26.777,15.481 1.914,1.105 3.852,-0.362 5.488,-1.274 34.228,-19.345 68.498,-38.617 102.72,-57.968 1.268,-0.61 1.969,-1.956 1.866,-3.345 0.024,-39.245 0.006,-78.497 0.012,-117.742 0.145,-1.576 -0.767,-3.025 -2.192,-3.67 -34.759,-19.575 -69.5,-39.18 -104.253,-58.76 a 3.621,3.621 0 0 0 -4.094,-0.006 C 91.2,39.257 56.465,58.88 21.712,78.454 c -1.42,0.646 -2.373,2.071 -2.204,3.653 0.006,39.245 0,78.497 0,117.748 a 3.329,3.329 0 0 0 1.89,3.303 c 9.274,5.259 18.56,10.481 27.84,15.722 5.228,2.814 11.647,4.486 17.407,2.33 5.083,-1.823 8.646,-7.01 8.549,-12.407 0.048,-39.016 -0.024,-78.038 0.036,-117.048 -0.127,-1.732 1.516,-3.163 3.2,-3 4.456,-0.03 8.918,-0.06 13.374,0.012 1.86,-0.042 3.14,1.823 2.91,3.568 -0.018,39.263 0.048,78.527 -0.03,117.79 0.012,10.464 -4.287,21.85 -13.966,26.97 -11.924,6.177 -26.662,4.867 -38.442,-1.056 -10.198,-5.09 -19.93,-11.097 -29.947,-16.55 C 5.368,215.886 0.555,208.357 0.604,200.466 V 81.497 C 0.531,73.757 5.108,66.3 11.894,62.647 46.768,42.966 81.636,23.27 116.504,3.58 Z"
         inkscape:connector-curvature="0" />
      <path
         id="path6570"
         d="m 146.928,85.99 c 15.21,-0.979 31.493,-0.58 45.18,6.913 10.597,5.742 16.472,17.793 16.659,29.566 -0.296,1.588 -1.956,2.464 -3.472,2.355 -4.413,-0.006 -8.827,0.06 -13.24,-0.03 -1.872,0.072 -2.96,-1.654 -3.195,-3.309 -1.268,-5.633 -4.34,-11.212 -9.642,-13.929 -8.139,-4.075 -17.576,-3.87 -26.451,-3.785 -6.479,0.344 -13.446,0.905 -18.935,4.715 -4.214,2.886 -5.494,8.712 -3.99,13.404 1.418,3.369 5.307,4.456 8.489,5.458 18.33,4.794 37.754,4.317 55.734,10.626 7.444,2.572 14.726,7.572 17.274,15.366 3.333,10.446 1.872,22.932 -5.56,31.318 -6.027,6.901 -14.805,10.657 -23.56,12.697 -11.647,2.597 -23.734,2.663 -35.562,1.51 -11.122,-1.268 -22.696,-4.19 -31.282,-11.768 -7.342,-6.375 -10.928,-16.308 -10.572,-25.895 0.085,-1.619 1.697,-2.748 3.248,-2.615 4.444,-0.036 8.888,-0.048 13.332,0.006 1.775,-0.127 3.091,1.407 3.182,3.08 0.82,5.367 2.837,11 7.517,14.182 9.032,5.827 20.365,5.428 30.707,5.591 8.568,-0.38 18.186,-0.495 25.178,-6.158 3.689,-3.23 4.782,-8.634 3.785,-13.283 -1.08,-3.925 -5.186,-5.754 -8.712,-6.95 -18.095,-5.724 -37.736,-3.647 -55.656,-10.12 -7.275,-2.571 -14.31,-7.432 -17.105,-14.906 -3.9,-10.578 -2.113,-23.662 6.098,-31.765 8.006,-8.06 19.563,-11.164 30.551,-12.275 z"
         inkscape:connector-curvature="0" />
    </g>
  </g>
</svg>
