<?xml version="1.0" encoding="UTF-8" standalone="no"?>
<!-- Created with Inkscape (http://www.inkscape.org/) -->

<svg
   xmlns:dc="http://purl.org/dc/elements/1.1/"
   xmlns:cc="http://creativecommons.org/ns#"
   xmlns:rdf="http://www.w3.org/1999/02/22-rdf-syntax-ns#"
   xmlns:svg="http://www.w3.org/2000/svg"
   xmlns="http://www.w3.org/2000/svg"
   xmlns:xlink="http://www.w3.org/1999/xlink"
   xmlns:sodipodi="http://sodipodi.sourceforge.net/DTD/sodipodi-0.dtd"
   xmlns:inkscape="http://www.inkscape.org/namespaces/inkscape"
   id="svg8"
   version="1.1"
   viewBox="0 0 91.581637 18.694686"
   height="18.694685mm"
   width="91.581635mm"
   inkscape:version="0.92.1 r15371"
   sodipodi:docname="logo_main_entropy.svg">
  <sodipodi:namedview
     inkscape:current-layer="layer1"
     inkscape:window-maximized="1"
     inkscape:window-y="-8"
     inkscape:window-x="-8"
     inkscape:window-height="1017"
     inkscape:window-width="1920"
     showborder="false"
     showgrid="false"
     inkscape:document-units="px"
     inkscape:cy="21.232041"
     inkscape:cx="191.01749"
     inkscape:zoom="2.8284271"
     inkscape:pageshadow="2"
     inkscape:pageopacity="0.0"
     borderopacity="1.0"
     bordercolor="#666666"
     pagecolor="#ffffff"
     id="base"
     fit-margin-top="0"
     fit-margin-left="0"
     fit-margin-right="0"
     fit-margin-bottom="0"
     inkscape:snap-others="false"
     units="mm"
     inkscape:snap-nodes="false" />
  <defs
     id="defs2">
    <linearGradient
       id="linearGradient48849"
       inkscape:collect="always">
      <stop
         id="stop48843"
         offset="0"
         style="stop-color:#5500d4;stop-opacity:1" />
      <stop
         style="stop-color:#7f199f;stop-opacity:1"
         offset="0.44754136"
         id="stop48845" />
      <stop
         id="stop48847"
         offset="1"
         style="stop-color:#411bd8;stop-opacity:0.98590684" />
    </linearGradient>
    <linearGradient
       inkscape:collect="always"
       id="linearGradient48775">
      <stop
         style="stop-color:#aa336a;stop-opacity:1"
         offset="0"
         id="stop48771" />
      <stop
         id="stop48779"
         offset="0.44754136"
         style="stop-color:#605480;stop-opacity:0.98823529" />
      <stop
         style="stop-color:#2a33e9;stop-opacity:1"
         offset="1"
         id="stop48773" />
    </linearGradient>
    <linearGradient
       inkscape:collect="always"
       id="linearGradient48733">
      <stop
         style="stop-color:#ff6600;stop-opacity:1"
         offset="0"
         id="stop48729" />
      <stop
         id="stop48737"
         offset="0.46697676"
         style="stop-color:#5eb42c;stop-opacity:0.97254902;" />
      <stop
         style="stop-color:#0066ff;stop-opacity:1"
         offset="1"
         id="stop48731" />
    </linearGradient>
    <inkscape:path-effect
       effect="bend_path"
       id="path-effect58855"
       is_visible="true"
       bendpath="m -703.52617,-1107.2949 c 6.04118,-4.873 11.0953,-5.8674 16.78434,0"
       prop_scale="1.0716876"
       scale_y_rel="false"
       vertical="false"
       bendpath-nodetypes="cc" />
    <inkscape:path-effect
       effect="bend_path"
       id="path-effect58535"
       is_visible="true"
       bendpath="m -703.72461,-1114.0417 c 6.23821,-5.5304 11.4501,-5.4054 16.98278,0"
       prop_scale="1.0157391"
       scale_y_rel="false"
       vertical="false"
       bendpath-nodetypes="cc" />
    <inkscape:path-effect
       effect="bend_path"
       id="path-effect58215"
       is_visible="true"
       bendpath="m -703.52617,-1121.3178 c 6.20662,-4.9594 11.2824,-5.6547 16.78434,0.1323"
       prop_scale="1.0217936"
       scale_y_rel="false"
       vertical="false"
       bendpath-nodetypes="cc" />
    <inkscape:path-effect
       effect="bend_path"
       id="path-effect57697"
       is_visible="true"
       bendpath="m -738.90393,-1088.7761 c 5.76295,-5.1531 10.79006,-5.6925 16.80234,0"
       prop_scale="0.9935197"
       scale_y_rel="false"
       vertical="false"
       bendpath-nodetypes="cc" />
    <inkscape:path-effect
       vertical="false"
       scale_y_rel="false"
       prop_scale="1"
       bendpath="m -737.04909,-1081.5662 h 14.85394"
       is_visible="true"
       id="path-effect32212"
       effect="bend_path" />
    <inkscape:path-effect
       effect="bend_path"
       id="path-effect31623"
       is_visible="true"
       bendpath="m -737.04909,-1081.5662 h 14.85394"
       prop_scale="1"
       scale_y_rel="false"
       vertical="false" />
    <inkscape:path-effect
       vertical="false"
       scale_y_rel="false"
       prop_scale="1"
       bendpath="m -797.61127,-1062.4902 h 3.77282"
       is_visible="true"
       id="path-effect10309"
       effect="bend_path" />
    <inkscape:path-effect
       vertical="false"
       scale_y_rel="false"
       prop_scale="1"
       bendpath="m -673.5534,70.06048 h 202.73107"
       is_visible="true"
       id="path-effect37335"
       effect="bend_path" />
    <inkscape:path-effect
       effect="bend_path"
       id="path-effect4569"
       is_visible="true"
       bendpath="m -129.64583,137.45622 c 97.326031,-66.810577 188.4239,-67.749683 260.98498,0"
       prop_scale="0.99357951"
       scale_y_rel="false"
       vertical="false"
       bendpath-nodetypes="cc" />
    <linearGradient
       inkscape:collect="always"
       xlink:href="#linearGradient48849"
       id="linearGradient48735"
       x1="-626.31427"
       y1="-1149.3951"
       x2="-626.39221"
       y2="-1161.4578"
       gradientUnits="userSpaceOnUse"
       gradientTransform="matrix(0.631352,0,0,0.631352,-237.88218,-430.0355)" />
    <linearGradient
       inkscape:collect="always"
       xlink:href="#linearGradient48775"
       id="linearGradient48819"
       gradientUnits="userSpaceOnUse"
       gradientTransform="matrix(0.78655351,0,0,0.78655351,-98.725787,-254.10587)"
       x1="-626.31427"
       y1="-1149.3951"
       x2="-626.39221"
       y2="-1161.4578" />
    <linearGradient
       inkscape:collect="always"
       xlink:href="#linearGradient48733"
       id="linearGradient48841"
       x1="-644.75214"
       y1="-1159.4342"
       x2="-587.80463"
       y2="-1159.4342"
       gradientUnits="userSpaceOnUse"
       gradientTransform="translate(-3.0329444)" />
    <linearGradient
       inkscape:collect="always"
       xlink:href="#linearGradient48733"
       id="linearGradient7036"
       x1="-626.54938"
       y1="-1125.257"
       x2="-589.48102"
       y2="-1125.257"
       gradientUnits="userSpaceOnUse"
       gradientTransform="matrix(1.082275,0,0,1.082275,50.09823,93.309238)" />
    <linearGradient
       inkscape:collect="always"
       xlink:href="#linearGradient48733"
       id="linearGradient7388"
       gradientUnits="userSpaceOnUse"
       gradientTransform="matrix(1.7335244,0,0,1.7335244,455.91704,824.82048)"
       x1="-626.54938"
       y1="-1125.257"
       x2="-589.48102"
       y2="-1125.257" />
    <linearGradient
       inkscape:collect="always"
       xlink:href="#linearGradient48733"
       id="linearGradient7842"
       gradientUnits="userSpaceOnUse"
       gradientTransform="matrix(1.7335244,0,0,1.7335244,455.91704,824.82048)"
       x1="-626.54938"
       y1="-1125.257"
       x2="-589.48102"
       y2="-1125.257" />
  </defs>
  <metadata
     id="metadata5">
    <rdf:RDF>
      <cc:Work
         rdf:about="">
        <dc:format>image/svg+xml</dc:format>
        <dc:type
           rdf:resource="http://purl.org/dc/dcmitype/StillImage" />
        <dc:title></dc:title>
      </cc:Work>
    </rdf:RDF>
  </metadata>
  <g
     id="layer1"
     inkscape:groupmode="layer"
     inkscape:label="Calque 1"
     transform="translate(652.70627,1136.2378)">
    <g
       id="g7840">
      <g
         style="stroke-width:1.41528654"
         transform="matrix(0.70657068,0,0,0.70657068,-171.92811,-332.83871)"
         id="g47158">
        <path
           inkscape:transform-center-y="-224.5064"
           inkscape:transform-center-x="-459.0522"
           style="opacity:1;fill:#e27407;fill-opacity:1;stroke:none;stroke-width:74.89222717;stroke-miterlimit:4;stroke-dasharray:none;stroke-opacity:1"
           id="path9037"
           sodipodi:type="arc"
           sodipodi:cx="-924.54132"
           sodipodi:cy="-918.11188"
           sodipodi:rx="1.2379572"
           sodipodi:ry="1.2379572"
           sodipodi:start="0"
           sodipodi:end="6.2761516"
           sodipodi:open="true"
           d="m -923.30336,-918.11188 a 1.2379572,1.2379572 0 0 1 -1.23578,1.23796 1.2379572,1.2379572 0 0 1 -1.24013,-1.2336 1.2379572,1.2379572 0 0 1 1.23142,-1.2423 1.2379572,1.2379572 0 0 1 1.24446,1.22924"
           transform="rotate(15.000009)" />
        <path
           inkscape:transform-center-y="-224.5064"
           inkscape:transform-center-x="-459.0522"
           style="opacity:1;fill:#c5820f;fill-opacity:1;stroke:none;stroke-width:74.89224243;stroke-miterlimit:4;stroke-dasharray:none;stroke-opacity:1"
           id="path9039"
           sodipodi:type="arc"
           sodipodi:cx="-1128.9282"
           sodipodi:cy="-644.92493"
           sodipodi:rx="1.2379575"
           sodipodi:ry="1.2379575"
           sodipodi:start="0"
           sodipodi:end="6.2761516"
           sodipodi:open="true"
           d="m -1127.6903,-644.92493 a 1.2379575,1.2379575 0 0 1 -1.2357,1.23796 1.2379575,1.2379575 0 0 1 -1.2402,-1.2336 1.2379575,1.2379575 0 0 1 1.2314,-1.2423 1.2379575,1.2379575 0 0 1 1.2445,1.22924"
           transform="rotate(29.999984)" />
        <path
           inkscape:transform-center-y="-224.5064"
           inkscape:transform-center-x="-459.0522"
           style="opacity:1;fill:#a99017;fill-opacity:0.9937704;stroke:none;stroke-width:74.89225006;stroke-miterlimit:4;stroke-dasharray:none;stroke-opacity:1"
           id="path9041"
           sodipodi:type="arc"
           sodipodi:cx="-1255.6453"
           sodipodi:cy="-328.14648"
           sodipodi:rx="1.2379576"
           sodipodi:ry="1.2379576"
           sodipodi:start="0"
           sodipodi:end="6.2761516"
           sodipodi:open="true"
           d="m -1254.4073,-328.14648 a 1.2379576,1.2379576 0 0 1 -1.2358,1.23795 1.2379576,1.2379576 0 0 1 -1.2401,-1.2336 1.2379576,1.2379576 0 0 1 1.2314,-1.24229 1.2379576,1.2379576 0 0 1 1.2445,1.22923"
           transform="rotate(45)" />
        <path
           inkscape:transform-center-y="-224.5064"
           inkscape:transform-center-x="-459.0522"
           style="opacity:1;fill:#8c9e1f;fill-opacity:1;stroke:none;stroke-width:74.89225769;stroke-miterlimit:4;stroke-dasharray:none;stroke-opacity:1"
           id="path9043"
           sodipodi:type="arc"
           sodipodi:cx="-1296.056"
           sodipodi:cy="10.634274"
           sodipodi:rx="1.2379577"
           sodipodi:ry="1.2379577"
           sodipodi:start="0"
           sodipodi:end="6.2761516"
           sodipodi:open="true"
           d="m -1294.8181,10.634274 a 1.2379577,1.2379577 0 0 1 -1.2358,1.237955 1.2379577,1.2379577 0 0 1 -1.2401,-1.233602 1.2379577,1.2379577 0 0 1 1.2314,-1.242294 1.2379577,1.2379577 0 0 1 1.2445,1.229233"
           transform="rotate(59.999995)" />
        <path
           inkscape:transform-center-y="-224.5064"
           inkscape:transform-center-x="-459.0522"
           style="opacity:1;fill:#70ac27;fill-opacity:1;stroke:none;stroke-width:74.89222717;stroke-miterlimit:4;stroke-dasharray:none;stroke-opacity:1"
           id="path9045"
           sodipodi:type="arc"
           sodipodi:cx="-1247.4071"
           sodipodi:cy="348.33047"
           sodipodi:rx="1.2379572"
           sodipodi:ry="1.2379572"
           sodipodi:start="0"
           sodipodi:end="6.2761516"
           sodipodi:open="true"
           d="m -1246.1691,348.33047 a 1.2379572,1.2379572 0 0 1 -1.2358,1.23796 1.2379572,1.2379572 0 0 1 -1.2402,-1.2336 1.2379572,1.2379572 0 0 1 1.2315,-1.2423 1.2379572,1.2379572 0 0 1 1.2444,1.22924"
           transform="rotate(74.999991)" />
        <path
           inkscape:transform-center-y="-224.5064"
           inkscape:transform-center-x="-459.0522"
           style="opacity:1;fill:#53ba2f;fill-opacity:1;stroke:none;stroke-width:74.89224243;stroke-miterlimit:4;stroke-dasharray:none;stroke-opacity:1"
           id="path9047"
           sodipodi:type="arc"
           sodipodi:cx="-1113.0134"
           sodipodi:cy="661.92896"
           sodipodi:rx="1.2379574"
           sodipodi:ry="1.2379574"
           sodipodi:start="0"
           sodipodi:end="6.2761516"
           sodipodi:open="true"
           d="m -1111.7755,661.92896 a 1.2379574,1.2379574 0 0 1 -1.2358,1.23795 1.2379574,1.2379574 0 0 1 -1.2401,-1.2336 1.2379574,1.2379574 0 0 1 1.2314,-1.2423 1.2379574,1.2379574 0 0 1 1.2445,1.22924"
           transform="rotate(90)" />
        <path
           inkscape:transform-center-y="-224.5064"
           inkscape:transform-center-x="-459.0522"
           style="opacity:1;fill:#37c837;fill-opacity:1;stroke:none;stroke-width:74.89222717;stroke-miterlimit:4;stroke-dasharray:none;stroke-opacity:1"
           id="path9049"
           sodipodi:type="arc"
           sodipodi:cx="-902.03375"
           sodipodi:cy="930.05811"
           sodipodi:rx="1.2379572"
           sodipodi:ry="1.2379572"
           sodipodi:start="0"
           sodipodi:end="6.2761516"
           sodipodi:open="true"
           d="m -900.7958,930.05811 a 1.2379572,1.2379572 0 0 1 -1.23578,1.23795 1.2379572,1.2379572 0 0 1 -1.24012,-1.2336 1.2379572,1.2379572 0 0 1 1.23142,-1.24229 1.2379572,1.2379572 0 0 1 1.24445,1.22923"
           transform="rotate(105.00001)" />
        <path
           inkscape:transform-center-y="-224.5064"
           inkscape:transform-center-x="-459.0522"
           style="opacity:1;fill:#2fba53;fill-opacity:1;stroke:none;stroke-width:74.89225006;stroke-miterlimit:4;stroke-dasharray:none;stroke-opacity:1"
           id="path9051"
           sodipodi:type="arc"
           sodipodi:cx="-312.06836"
           sodipodi:cy="1261.162"
           sodipodi:rx="1.2379576"
           sodipodi:ry="1.2379576"
           sodipodi:start="0"
           sodipodi:end="6.2761516"
           sodipodi:open="true"
           d="m -310.8304,1261.162 a 1.2379576,1.2379576 0 0 1 -1.23578,1.2379 1.2379576,1.2379576 0 0 1 -1.24013,-1.2336 1.2379576,1.2379576 0 0 1 1.23142,-1.2423 1.2379576,1.2379576 0 0 1 1.24446,1.2293"
           transform="rotate(135)" />
        <path
           inkscape:transform-center-y="-224.5064"
           inkscape:transform-center-x="-459.0522"
           style="opacity:1;fill:#37c837;fill-opacity:1;stroke:none;stroke-width:74.89224243;stroke-miterlimit:4;stroke-dasharray:none;stroke-opacity:1"
           id="path9053"
           sodipodi:type="arc"
           sodipodi:cx="-628.8468"
           sodipodi:cy="1134.4451"
           sodipodi:rx="1.2379575"
           sodipodi:ry="1.2379575"
           sodipodi:start="0"
           sodipodi:end="6.2761516"
           sodipodi:open="true"
           d="m -627.60884,1134.4451 a 1.2379575,1.2379575 0 0 1 -1.23578,1.2379 1.2379575,1.2379575 0 0 1 -1.24013,-1.2336 1.2379575,1.2379575 0 0 1 1.23142,-1.2423 1.2379575,1.2379575 0 0 1 1.24446,1.2293"
           transform="rotate(119.99998)" />
        <path
           inkscape:transform-center-y="-224.5064"
           inkscape:transform-center-x="-459.0522"
           style="opacity:1;fill:#27ac70;fill-opacity:0.99945535;stroke:none;stroke-width:74.89224243;stroke-miterlimit:4;stroke-dasharray:none;stroke-opacity:1"
           id="path9055"
           sodipodi:type="arc"
           sodipodi:cx="26.712875"
           sodipodi:cy="1301.5729"
           sodipodi:rx="1.2379575"
           sodipodi:ry="1.2379575"
           sodipodi:start="0"
           sodipodi:end="6.2761516"
           sodipodi:open="true"
           d="m 27.950833,1301.5729 a 1.2379575,1.2379575 0 0 1 -1.235781,1.2379 1.2379575,1.2379575 0 0 1 -1.240126,-1.2336 1.2379575,1.2379575 0 0 1 1.231419,-1.2423 1.2379575,1.2379575 0 0 1 1.244457,1.2293"
           transform="rotate(150.00002)" />
        <path
           inkscape:transform-center-y="-224.5064"
           inkscape:transform-center-x="-459.0522"
           style="opacity:1;fill:#1f9e8c;fill-opacity:0.99210241;stroke:none;stroke-width:74.89222717;stroke-miterlimit:4;stroke-dasharray:none;stroke-opacity:1"
           id="path9057"
           sodipodi:type="arc"
           sodipodi:cx="364.4086"
           sodipodi:cy="1252.9238"
           sodipodi:rx="1.2379572"
           sodipodi:ry="1.2379572"
           sodipodi:start="0"
           sodipodi:end="6.2761516"
           sodipodi:open="true"
           d="m 365.64656,1252.9238 a 1.2379572,1.2379572 0 0 1 -1.23578,1.238 1.2379572,1.2379572 0 0 1 -1.24013,-1.2336 1.2379572,1.2379572 0 0 1 1.23142,-1.2423 1.2379572,1.2379572 0 0 1 1.24446,1.2292"
           transform="rotate(164.99999)" />
        <path
           inkscape:transform-center-y="-224.5064"
           inkscape:transform-center-x="-459.0522"
           style="opacity:1;fill:#91666d;fill-opacity:1;stroke:none;stroke-width:74.89225769;stroke-miterlimit:4;stroke-dasharray:none;stroke-opacity:1"
           id="path9073"
           sodipodi:type="arc"
           sodipodi:cx="650.44128"
           sodipodi:cy="-1145.0066"
           sodipodi:rx="1.2379577"
           sodipodi:ry="1.2379577"
           sodipodi:start="0"
           sodipodi:end="6.2761516"
           sodipodi:open="true"
           d="m 651.67924,-1145.0066 a 1.2379577,1.2379577 0 0 1 -1.23578,1.238 1.2379577,1.2379577 0 0 1 -1.24013,-1.2336 1.2379577,1.2379577 0 0 1 1.23142,-1.2423 1.2379577,1.2379577 0 0 1 1.24446,1.2292"
           transform="rotate(-59.999995)" />
        <path
           inkscape:transform-center-y="-224.5064"
           inkscape:transform-center-x="-459.0522"
           style="opacity:1;fill:#1790a9;fill-opacity:0.99049563;stroke:none;stroke-width:74.89224243;stroke-miterlimit:4;stroke-dasharray:none;stroke-opacity:1"
           id="path9059"
           sodipodi:type="arc"
           sodipodi:cx="678.00708"
           sodipodi:cy="1118.5302"
           sodipodi:rx="1.2379574"
           sodipodi:ry="1.2379574"
           sodipodi:start="0"
           sodipodi:end="6.2761516"
           sodipodi:open="true"
           d="m 679.24504,1118.5302 a 1.2379574,1.2379574 0 0 1 -1.23578,1.2379 1.2379574,1.2379574 0 0 1 -1.24013,-1.2336 1.2379574,1.2379574 0 0 1 1.23142,-1.2423 1.2379574,1.2379574 0 0 1 1.24446,1.2292"
           transform="scale(-1)" />
        <path
           inkscape:transform-center-y="-224.5064"
           inkscape:transform-center-x="-459.0522"
           style="opacity:1;fill:#0f82c5;fill-opacity:0.99970948;stroke:none;stroke-width:74.89222717;stroke-miterlimit:4;stroke-dasharray:none;stroke-opacity:1"
           id="path9061"
           sodipodi:type="arc"
           sodipodi:cx="946.13623"
           sodipodi:cy="907.55054"
           sodipodi:rx="1.2379572"
           sodipodi:ry="1.2379572"
           sodipodi:start="0"
           sodipodi:end="6.2761516"
           sodipodi:open="true"
           d="m 947.37419,907.55054 a 1.2379572,1.2379572 0 0 1 -1.23578,1.23795 1.2379572,1.2379572 0 0 1 -1.24013,-1.2336 1.2379572,1.2379572 0 0 1 1.23142,-1.24229 1.2379572,1.2379572 0 0 1 1.24446,1.22923"
           transform="rotate(-164.99999)" />
        <path
           inkscape:transform-center-y="-224.5064"
           inkscape:transform-center-x="-459.0522"
           style="opacity:1;fill:#0774e2;fill-opacity:0.99468653;stroke:none;stroke-width:74.89224243;stroke-miterlimit:4;stroke-dasharray:none;stroke-opacity:1"
           id="path9063"
           sodipodi:type="arc"
           sodipodi:cx="1150.5232"
           sodipodi:cy="634.36359"
           sodipodi:rx="1.2379575"
           sodipodi:ry="1.2379575"
           sodipodi:start="0"
           sodipodi:end="6.2761516"
           sodipodi:open="true"
           d="m 1151.7612,634.36359 a 1.2379575,1.2379575 0 0 1 -1.2358,1.23795 1.2379575,1.2379575 0 0 1 -1.2402,-1.2336 1.2379575,1.2379575 0 0 1 1.2315,-1.24229 1.2379575,1.2379575 0 0 1 1.2444,1.22923"
           transform="rotate(-150.00002)" />
        <path
           inkscape:transform-center-y="-224.5064"
           inkscape:transform-center-x="-459.0522"
           style="opacity:1;fill:#0066ff;fill-opacity:1;stroke:none;stroke-width:74.89225006;stroke-miterlimit:4;stroke-dasharray:none;stroke-opacity:1"
           id="path9065"
           sodipodi:type="arc"
           sodipodi:cx="1277.2401"
           sodipodi:cy="317.58517"
           sodipodi:rx="1.2379576"
           sodipodi:ry="1.2379576"
           sodipodi:start="0"
           sodipodi:end="6.2761516"
           sodipodi:open="true"
           d="m 1278.4781,317.58517 a 1.2379576,1.2379576 0 0 1 -1.2358,1.23796 1.2379576,1.2379576 0 0 1 -1.2401,-1.2336 1.2379576,1.2379576 0 0 1 1.2314,-1.2423 1.2379576,1.2379576 0 0 1 1.2444,1.22924"
           transform="rotate(-135)" />
        <path
           inkscape:transform-center-y="-224.5064"
           inkscape:transform-center-x="-459.0522"
           style="opacity:1;fill:#0066ff;fill-opacity:1;stroke:none;stroke-width:74.89224243;stroke-miterlimit:4;stroke-dasharray:none;stroke-opacity:1"
           id="path9067"
           sodipodi:type="arc"
           sodipodi:cx="1317.651"
           sodipodi:cy="-21.196074"
           sodipodi:rx="1.2379575"
           sodipodi:ry="1.2379575"
           sodipodi:start="0"
           sodipodi:end="6.2761516"
           sodipodi:open="true"
           d="m 1318.889,-21.196074 a 1.2379575,1.2379575 0 0 1 -1.2358,1.237956 1.2379575,1.2379575 0 0 1 -1.2401,-1.233602 1.2379575,1.2379575 0 0 1 1.2314,-1.242294 1.2379575,1.2379575 0 0 1 1.2444,1.229233"
           transform="rotate(-119.99998)" />
        <path
           inkscape:transform-center-y="-224.5064"
           inkscape:transform-center-x="-459.0522"
           style="opacity:1;fill:#2466da;fill-opacity:1;stroke:none;stroke-width:74.89222717;stroke-miterlimit:4;stroke-dasharray:none;stroke-opacity:1"
           id="path9069"
           sodipodi:type="arc"
           sodipodi:cx="1269.002"
           sodipodi:cy="-358.89182"
           sodipodi:rx="1.2379572"
           sodipodi:ry="1.2379572"
           sodipodi:start="0"
           sodipodi:end="6.2761516"
           sodipodi:open="true"
           d="m 1270.2399,-358.89182 a 1.2379572,1.2379572 0 0 1 -1.2358,1.23796 1.2379572,1.2379572 0 0 1 -1.2401,-1.2336 1.2379572,1.2379572 0 0 1 1.2314,-1.2423 1.2379572,1.2379572 0 0 1 1.2445,1.22924"
           transform="rotate(-105.00001)" />
        <path
           inkscape:transform-center-y="-224.5064"
           inkscape:transform-center-x="-459.0522"
           style="opacity:1;fill:#4866b6;fill-opacity:0.99698343;stroke:none;stroke-width:74.89224243;stroke-miterlimit:4;stroke-dasharray:none;stroke-opacity:1"
           id="path9071"
           sodipodi:type="arc"
           sodipodi:cx="1134.6083"
           sodipodi:cy="-672.4903"
           sodipodi:rx="1.2379574"
           sodipodi:ry="1.2379574"
           sodipodi:start="0"
           sodipodi:end="6.2761516"
           sodipodi:open="true"
           d="m 1135.8462,-672.4903 a 1.2379574,1.2379574 0 0 1 -1.2357,1.23796 1.2379574,1.2379574 0 0 1 -1.2402,-1.2336 1.2379574,1.2379574 0 0 1 1.2314,-1.2423 1.2379574,1.2379574 0 0 1 1.2445,1.22924"
           transform="rotate(-90)" />
        <path
           inkscape:transform-center-y="-224.5064"
           inkscape:transform-center-x="-459.0522"
           style="opacity:1;fill:#6d6691;fill-opacity:1;stroke:none;stroke-width:74.89222717;stroke-miterlimit:4;stroke-dasharray:none;stroke-opacity:1"
           id="path9075"
           sodipodi:type="arc"
           sodipodi:cx="923.62866"
           sodipodi:cy="-940.61945"
           sodipodi:rx="1.2379572"
           sodipodi:ry="1.2379572"
           sodipodi:start="0"
           sodipodi:end="6.2761516"
           sodipodi:open="true"
           d="m 924.86662,-940.61945 a 1.2379572,1.2379572 0 0 1 -1.23578,1.23796 1.2379572,1.2379572 0 0 1 -1.24013,-1.2336 1.2379572,1.2379572 0 0 1 1.23142,-1.2423 1.2379572,1.2379572 0 0 1 1.24446,1.22924"
           transform="rotate(-74.999991)" />
        <path
           inkscape:transform-center-y="-224.5064"
           inkscape:transform-center-x="-459.0522"
           style="opacity:1;fill:#b66648;fill-opacity:1;stroke:none;stroke-width:74.89225006;stroke-miterlimit:4;stroke-dasharray:none;stroke-opacity:1"
           id="path9077"
           sodipodi:type="arc"
           sodipodi:cx="333.6633"
           sodipodi:cy="-1271.7234"
           sodipodi:rx="1.2379576"
           sodipodi:ry="1.2379576"
           sodipodi:start="0"
           sodipodi:end="6.2761516"
           sodipodi:open="true"
           d="m 334.90126,-1271.7234 a 1.2379576,1.2379576 0 0 1 -1.23578,1.238 1.2379576,1.2379576 0 0 1 -1.24013,-1.2336 1.2379576,1.2379576 0 0 1 1.23142,-1.2423 1.2379576,1.2379576 0 0 1 1.24446,1.2292"
           transform="rotate(-45)" />
        <path
           inkscape:transform-center-y="-224.5064"
           inkscape:transform-center-x="-459.0522"
           style="opacity:1;fill:#da6624;fill-opacity:0.90780831;stroke:none;stroke-width:74.89224243;stroke-miterlimit:4;stroke-dasharray:none;stroke-opacity:1"
           id="path9079"
           sodipodi:type="arc"
           sodipodi:cx="-5.1179461"
           sodipodi:cy="-1312.1342"
           sodipodi:rx="1.2379575"
           sodipodi:ry="1.2379575"
           sodipodi:start="0"
           sodipodi:end="6.2761516"
           sodipodi:open="true"
           d="m -3.8799887,-1312.1342 a 1.2379575,1.2379575 0 0 1 -1.2357806,1.238 1.2379575,1.2379575 0 0 1 -1.2401267,-1.2336 1.2379575,1.2379575 0 0 1 1.2314193,-1.2423 1.2379575,1.2379575 0 0 1 1.2444574,1.2292"
           transform="rotate(-29.999984)" />
        <path
           inkscape:transform-center-y="-224.5064"
           inkscape:transform-center-x="-459.0522"
           style="opacity:1;fill:#ff6600;fill-opacity:1;stroke:none;stroke-width:74.89222717;stroke-miterlimit:4;stroke-dasharray:none;stroke-opacity:1"
           id="path9081"
           sodipodi:type="arc"
           sodipodi:cx="-342.81369"
           sodipodi:cy="-1263.4852"
           sodipodi:rx="1.2379572"
           sodipodi:ry="1.2379572"
           sodipodi:start="0"
           sodipodi:end="6.2761516"
           sodipodi:open="true"
           d="m -341.57573,-1263.4852 a 1.2379572,1.2379572 0 0 1 -1.23578,1.2379 1.2379572,1.2379572 0 0 1 -1.24013,-1.2336 1.2379572,1.2379572 0 0 1 1.23142,-1.2423 1.2379572,1.2379572 0 0 1 1.24446,1.2293"
           transform="rotate(-15.000009)" />
        <path
           inkscape:transform-center-y="-224.5064"
           inkscape:transform-center-x="-459.0522"
           style="opacity:1;fill:#ff6600;fill-opacity:1;stroke:none;stroke-width:74.89224243;stroke-miterlimit:4;stroke-dasharray:none;stroke-opacity:1"
           id="path9083"
           sodipodi:type="arc"
           sodipodi:cx="-656.41217"
           sodipodi:cy="-1129.0916"
           sodipodi:rx="1.2379574"
           sodipodi:ry="1.2379574"
           sodipodi:start="0"
           sodipodi:end="6.2761516"
           sodipodi:open="true"
           d="m -655.17421,-1129.0916 a 1.2379574,1.2379574 0 0 1 -1.23578,1.238 1.2379574,1.2379574 0 0 1 -1.24013,-1.2336 1.2379574,1.2379574 0 0 1 1.23142,-1.2423 1.2379574,1.2379574 0 0 1 1.24446,1.2292" />
        <path
           d="m -666.50006,-1123.8309 a 0.69341689,0.69341689 0 0 1 -0.6922,0.6934 0.69341689,0.69341689 0 0 1 -0.69463,-0.691 0.69341689,0.69341689 0 0 1 0.68975,-0.6958 0.69341689,0.69341689 0 0 1 0.69706,0.6885"
           sodipodi:open="true"
           sodipodi:end="6.2761516"
           sodipodi:start="0"
           sodipodi:ry="0.69341689"
           sodipodi:rx="0.69341689"
           sodipodi:cy="-1123.8309"
           sodipodi:cx="-667.19348"
           sodipodi:type="arc"
           id="path9011"
           style="opacity:1;fill:#5500d4;fill-opacity:1;stroke:none;stroke-width:74.89224243;stroke-miterlimit:4;stroke-dasharray:none;stroke-opacity:1" />
        <path
           inkscape:connector-curvature="0"
           d="m -671.00099,-1132.8933 c 0.53689,0.092 0.8976,0.602 0.80618,1.139 0,0 0,0 0,10e-5 -0.0914,0.537 -0.60044,0.8986 -1.13765,0.8081 0,0 -10e-6,0 -10e-6,0 -0.53721,-0.091 -0.8997,-0.5988 -0.81017,-1.1362 0,0 0,0 0,0 0.0895,-0.5374 0.59727,-0.9008 1.1348,-0.8122"
           style="opacity:1;fill:#4b4cbe;fill-opacity:0.96470588;stroke:none;stroke-width:74.89224243;stroke-miterlimit:4;stroke-dasharray:none;stroke-opacity:1"
           id="path25853" />
        <path
           inkscape:connector-curvature="0"
           d="m -669.51079,-1129.9352 c 0.39093,0.1847 0.55845,0.6511 0.37441,1.0423 0,0 0,0 0,0 -0.18404,0.3913 -0.65013,0.5596 -1.0417,0.3763 -10e-6,0 -10e-6,0 -10e-6,0 -0.39157,-0.1834 -0.56072,-0.6492 -0.37806,-1.0411 0,0 0,0 10e-6,0 0.18266,-0.3919 0.64815,-0.5618 1.04036,-0.3799"
           style="opacity:1;fill:#4d32c4;fill-opacity:0.99607843;stroke:none;stroke-width:74.89224243;stroke-miterlimit:4;stroke-dasharray:none;stroke-opacity:1"
           id="path25855" />
        <path
           inkscape:connector-curvature="0"
           d="m -668.02059,-1126.9772 c 0.24496,0.2771 0.2193,0.7003 -0.0574,0.9457 0,0 0,0 0,0 -0.27667,0.2454 -0.69982,0.2205 -0.94575,-0.056 -10e-6,0 -10e-6,0 -10e-6,0 -0.24593,-0.2762 -0.22175,-0.6994 0.0541,-0.9459 0,0 10e-6,0 10e-6,0 0.27579,-0.2464 0.69903,-0.2229 0.94593,0.052"
           style="opacity:1;fill:#5119cc;fill-opacity:1;stroke:none;stroke-width:74.89224243;stroke-miterlimit:4;stroke-dasharray:none;stroke-opacity:1"
           id="path25857" />
        <path
           id="path25797"
           style="opacity:1;fill:#654ca2;fill-opacity:0.94901961;stroke:none;stroke-width:74.89224243;stroke-miterlimit:4;stroke-dasharray:none;stroke-opacity:1"
           d="m -668.52152,-1133.5599 c 0.49469,0.2282 0.7112,0.8138 0.48389,1.3089 0,0 0,0 0,0 -0.22731,0.4951 -0.81257,0.7126 -1.30806,0.4862 0,0 0,0 -10e-6,0 -0.49548,-0.2264 -0.71404,-0.8113 -0.48848,-1.3072 0,0 0,0 0,0 0.22556,-0.4959 0.81005,-0.7155 1.30634,-0.4908"
           inkscape:connector-curvature="0" />
        <path
           id="path25799"
           style="opacity:1;fill:#5f32b2;fill-opacity:0.99406547;stroke:none;stroke-width:74.89224243;stroke-miterlimit:4;stroke-dasharray:none;stroke-opacity:1"
           d="m -667.84771,-1130.3169 c 0.32979,0.2796 0.3709,0.7734 0.0919,1.1037 0,0 0,0 0,0 -0.27904,0.3303 -0.77281,0.3723 -1.10359,0.094 0,0 0,0 0,0 -0.33077,-0.2784 -0.37361,-0.7721 -0.0957,-1.1034 0,0 0,0 0,0 0.27787,-0.3312 0.77149,-0.375 1.10324,-0.098"
           inkscape:connector-curvature="0" />
        <path
           id="path25801"
           style="opacity:1;fill:#5a19c3;fill-opacity:1;stroke:none;stroke-width:74.89224243;stroke-miterlimit:4;stroke-dasharray:none;stroke-opacity:1"
           d="m -667.17389,-1127.0739 c 0.16489,0.331 0.0306,0.7331 -0.30017,0.8985 0,0 0,10e-5 0,10e-5 -0.33076,0.1654 -0.73305,0.032 -0.89911,-0.2986 0,0 0,0 0,0 -0.16606,-0.3305 -0.0332,-0.733 0.29701,-0.8997 0,0 10e-6,0 10e-6,0 0.33017,-0.1666 0.73292,-0.034 0.90014,0.2955"
           inkscape:connector-curvature="0" />
        <path
           id="path25805"
           style="opacity:1;fill:#304bd8;fill-opacity:0.98400005;stroke:none;stroke-width:74.89224243;stroke-miterlimit:4;stroke-dasharray:none;stroke-opacity:1"
           d="m -673.22345,-1131.6077 c 0.5425,-0.05 1.02283,0.3492 1.07353,0.8916 0,0 0,0 0,0 0.0507,0.5424 -0.3474,1.0234 -0.88972,1.0751 0,0 0,0 -1e-5,0 -0.54232,0.052 -1.02404,-0.3456 -1.07664,-0.8879 0,0 0,0 0,0 -0.0526,-0.5422 0.34379,-1.0246 0.88593,-1.0782"
           inkscape:connector-curvature="0" />
        <path
           id="path25807"
           style="opacity:1;fill:#3b32d6;fill-opacity:0.99607843;stroke:none;stroke-width:74.89224243;stroke-miterlimit:4;stroke-dasharray:none;stroke-opacity:1"
           d="m -671.01841,-1129.1361 c 0.42541,0.077 0.70793,0.4844 0.63143,0.9099 0,0 0,0 0,0 -0.0765,0.4256 -0.48315,0.7088 -0.90883,0.633 0,0 0,0 -1e-5,0 -0.42568,-0.076 -0.70963,-0.4819 -0.63462,-0.9077 10e-6,0 10e-6,0 10e-6,0 0.075,-0.4258 0.48064,-0.7105 0.90659,-0.6362"
           inkscape:connector-curvature="0" />
        <path
           id="path25809"
           style="opacity:1;fill:#4819d5;fill-opacity:1;stroke:none;stroke-width:74.89224243;stroke-miterlimit:4;stroke-dasharray:none;stroke-opacity:1"
           d="m -668.81338,-1126.6645 c 0.30833,0.2042 0.39305,0.6196 0.18934,0.9282 0,0 0,10e-5 0,10e-5 -0.20371,0.3086 -0.6189,0.3941 -0.92794,0.1909 0,0 0,0 -1e-5,0 -0.30904,-0.2031 -0.39521,-0.6182 -0.19259,-0.9276 0,0 0,0 1e-5,0 0.20261,-0.3094 0.6175,-0.3963 0.92725,-0.1942"
           inkscape:connector-curvature="0" />
        <path
           id="path25813"
           style="opacity:1;fill:#154cf4;fill-opacity:1;stroke:none;stroke-width:74.89224243;stroke-miterlimit:4;stroke-dasharray:none;stroke-opacity:1"
           d="m -675.03744,-1129.7907 c 0.51114,-0.1885 1.07835,0.072 1.26771,0.5833 0,10e-5 0,10e-5 0,10e-5 0.18935,0.5108 -0.0707,1.0784 -0.58114,1.2687 -10e-6,0 -10e-6,0 -10e-6,0 -0.51048,0.1902 -1.0786,-0.069 -1.26975,-0.5789 0,0 10e-6,0 10e-6,0 -0.19115,-0.5102 0.0669,-1.0788 0.57667,-1.2708"
           inkscape:connector-curvature="0" />
        <path
           id="path25815"
           style="opacity:1;fill:#2a33e9;fill-opacity:1;stroke:none;stroke-width:74.89224243;stroke-miterlimit:4;stroke-dasharray:none;stroke-opacity:1"
           d="m -672.26784,-1127.974 c 0.43091,-0.035 0.80918,0.2846 0.84542,0.7155 10e-6,0 10e-6,0 10e-6,0 0.0362,0.4308 -0.28324,0.8096 -0.71403,0.8466 0,0 0,0 0,0 -0.43079,0.037 -0.81018,-0.2818 -0.84793,-0.7125 0,0 0,0 0,0 -0.0377,-0.4307 0.28038,-0.8107 0.71103,-0.8492"
           inkscape:connector-curvature="0" />
        <path
           id="path25817"
           style="opacity:1;fill:#3f19de;fill-opacity:1;stroke:none;stroke-width:74.89224243;stroke-miterlimit:4;stroke-dasharray:none;stroke-opacity:1"
           d="m -669.49824,-1126.1574 c 0.35068,0.1175 0.54001,0.4968 0.42314,0.8477 0,0 0,0 0,0 -0.11687,0.3509 -0.4958,0.5409 -0.8469,0.4246 0,0 0,0 0,0 -0.3511,-0.1162 -0.54176,-0.4948 -0.42612,-0.8461 0,0 10e-6,0 10e-6,0 0.11564,-0.3513 0.49389,-0.5427 0.84539,-0.4277"
           inkscape:connector-curvature="0" />
        <path
           id="path25821"
           style="opacity:1;fill:#1a56de;fill-opacity:1;stroke:none;stroke-width:74.89224243;stroke-miterlimit:4;stroke-dasharray:none;stroke-opacity:1"
           d="m -676.9818,-1125.0856 c 0.34843,-0.4187 0.97016,-0.4763 1.38955,-0.1286 0,0 0,0 1e-5,0 0.41938,0.3477 0.47803,0.9693 0.13107,1.3893 0,0 0,0 0,0 -0.34697,0.42 -0.96849,0.4798 -1.38909,0.1335 0,0 0,0 0,0 -0.42061,-0.3462 -0.48145,-0.9676 -0.13597,-1.3888"
           inkscape:connector-curvature="0" />
        <path
           id="path25823"
           style="opacity:1;fill:#2c38db;fill-opacity:0.99215686;stroke:none;stroke-width:74.89224243;stroke-miterlimit:4;stroke-dasharray:none;stroke-opacity:1"
           d="m -673.67492,-1124.8971 c 0.35544,-0.2462 0.8431,-0.158 1.08991,0.197 0,0 10e-6,0 10e-6,0 0.2468,0.355 0.15954,0.8428 -0.19503,1.0902 0,0 0,0 0,0 -0.35458,0.2475 -0.84254,0.1611 -1.0906,-0.1931 0,0 0,0 10e-6,0 -0.24806,-0.3541 -0.16252,-0.8422 0.19117,-1.0909"
           inkscape:connector-curvature="0" />
        <path
           id="path25825"
           style="opacity:1;fill:#411cd6;fill-opacity:1;stroke:none;stroke-width:74.89224243;stroke-miterlimit:4;stroke-dasharray:none;stroke-opacity:1"
           d="m -670.36804,-1124.7086 c 0.36245,-0.074 0.71604,0.1602 0.79027,0.5225 0,0 0,0 0,0 0.0742,0.3623 -0.15893,0.7163 -0.52112,0.7912 0,0 0,0 0,0 -0.36219,0.075 -0.7166,-0.1577 -0.7921,-0.5197 0,0 0,0 0,0 -0.0755,-0.3621 0.15641,-0.7169 0.51833,-0.793"
           inkscape:connector-curvature="0" />
        <path
           id="path25829"
           style="opacity:1;fill:#154cf4;fill-opacity:1;stroke:none;stroke-width:74.89224243;stroke-miterlimit:4;stroke-dasharray:none;stroke-opacity:1"
           d="m -676.31934,-1127.5661 c 0.44495,-0.3144 1.06038,-0.209 1.37549,0.2354 10e-6,0 10e-6,0 10e-6,0 0.3151,0.4444 0.21086,1.06 -0.23297,1.3759 -10e-6,0 -10e-6,0 -10e-6,0 -0.44384,0.3159 -1.05965,0.2127 -1.37631,-0.2306 0,0 0,0 0,0 -0.31667,-0.4433 -0.2146,-1.0593 0.22813,-1.3767"
           inkscape:connector-curvature="0" />
        <path
           id="path25831"
           style="opacity:1;fill:#2a33e9;fill-opacity:1;stroke:none;stroke-width:74.89224243;stroke-miterlimit:4;stroke-dasharray:none;stroke-opacity:1"
           d="m -673.17393,-1126.5282 c 0.40705,-0.1458 0.85529,0.065 1.00181,0.4723 0,0 0,0 0,0 0.14652,0.4068 -0.064,0.8554 -0.47056,1.0027 0,0 0,0 0,0 -0.40653,0.1472 -0.85551,-0.063 -1.00346,-0.4688 10e-6,0 10e-6,0 10e-6,0 -0.14795,-0.4063 0.061,-0.8556 0.46702,-1.0043"
           inkscape:connector-curvature="0" />
        <path
           id="path25833"
           style="opacity:1;fill:#3f19de;fill-opacity:1;stroke:none;stroke-width:74.89224243;stroke-miterlimit:4;stroke-dasharray:none;stroke-opacity:1"
           d="m -670.02851,-1125.4902 c 0.36914,0.023 0.65018,0.34 0.62811,0.7092 0,0 0,0 0,0 -0.0221,0.3692 -0.33892,0.6508 -0.70814,0.6294 0,0 0,0 0,0 -0.36922,-0.022 -0.65137,-0.3378 -0.6306,-0.7071 0,0 10e-6,0 10e-6,0 0.0208,-0.3692 0.33662,-0.6519 0.70591,-0.6318"
           inkscape:connector-curvature="0" />
        <path
           id="path25837"
           style="opacity:1;fill:#2061c9;fill-opacity:1;stroke:none;stroke-width:74.89224243;stroke-miterlimit:4;stroke-dasharray:none;stroke-opacity:1"
           d="m -676.97967,-1122.5181 c 0.22817,-0.4947 0.81382,-0.7112 1.30891,-0.4839 0,0 10e-6,0 10e-6,0 0.49508,0.2273 0.71262,0.8126 0.48619,1.3081 0,0 0,0 0,0 -0.22644,0.4955 -0.81132,0.7141 -1.3072,0.4885 0,0 0,0 0,0 -0.49589,-0.2256 -0.71549,-0.8101 -0.4908,-1.3063"
           inkscape:connector-curvature="0" />
        <path
           id="path25839"
           style="opacity:1;fill:#303fcd;fill-opacity:0.99215686;stroke:none;stroke-width:74.89224243;stroke-miterlimit:4;stroke-dasharray:none;stroke-opacity:1"
           d="m -673.73669,-1123.1919 c 0.27962,-0.3298 0.77347,-0.3709 1.10375,-0.092 0,0 10e-6,0 10e-6,0 0.33028,0.279 0.37225,0.7728 0.0938,1.1035 0,0 0,0 -10e-6,0 -0.27845,0.3308 -0.77215,0.3737 -1.10341,0.096 0,0 0,0 0,0 -0.33126,-0.2779 -0.37497,-0.7715 -0.0977,-1.1033"
           inkscape:connector-curvature="0" />
        <path
           id="path25841"
           style="opacity:1;fill:#4320cf;fill-opacity:1;stroke:none;stroke-width:74.89224243;stroke-miterlimit:4;stroke-dasharray:none;stroke-opacity:1"
           d="m -670.4937,-1123.8657 c 0.33105,-0.1649 0.7331,-0.031 0.89858,0.3002 0,0 0,0 0,0 0.16548,0.3307 0.0319,0.733 -0.29858,0.8991 0,0 -1e-5,0 -1e-5,0 -0.33046,0.166 -0.73298,0.033 -0.89963,-0.297 0,0 0,0 0,0 -0.16663,-0.3302 -0.0345,-0.733 0.29543,-0.9002"
           inkscape:connector-curvature="0" />
        <path
           id="path25845"
           style="opacity:1;fill:#154cf4;fill-opacity:1;stroke:none;stroke-width:74.89224243;stroke-miterlimit:4;stroke-dasharray:none;stroke-opacity:1"
           d="m -676.31309,-1120.0386 c 0.0924,-0.5369 0.60201,-0.8976 1.13906,-0.8062 10e-6,0 10e-6,0 2e-5,0 0.53704,0.091 0.89864,0.6005 0.80817,1.1377 0,0 0,0 0,0 -0.0905,0.5372 -0.59886,0.8997 -1.13623,0.8102 0,0 0,0 0,0 -0.53737,-0.09 -0.90076,-0.5973 -0.81218,-1.1348"
           inkscape:connector-curvature="0" />
        <path
           id="path25847"
           style="opacity:1;fill:#2a33e9;fill-opacity:1;stroke:none;stroke-width:74.89224243;stroke-miterlimit:4;stroke-dasharray:none;stroke-opacity:1"
           d="m -673.35501,-1121.5288 c 0.18473,-0.3909 0.65112,-0.5584 1.04236,-0.3744 10e-6,0 10e-6,0 10e-6,0 0.39125,0.184 0.55958,0.6501 0.37623,1.0417 0,0 0,0 0,0 -0.18335,0.3916 -0.64914,0.5607 -1.04103,0.3781 0,0 -10e-6,0 -10e-6,0 -0.39189,-0.1827 -0.56187,-0.6482 -0.3799,-1.0404"
           inkscape:connector-curvature="0" />
        <path
           id="path25849"
           style="opacity:1;fill:#3f19de;fill-opacity:1;stroke:none;stroke-width:74.89224243;stroke-miterlimit:4;stroke-dasharray:none;stroke-opacity:1"
           d="m -670.39692,-1123.019 c 0.27709,-0.245 0.70021,-0.2193 0.94565,0.057 0,0 10e-6,0 10e-6,0 0.24544,0.2766 0.22051,0.6998 -0.0557,0.9457 0,0 0,0 0,0 -0.27623,0.246 -0.69943,0.2218 -0.94585,-0.054 0,0 0,0 0,0 -0.24641,-0.2758 -0.22298,-0.6991 0.0524,-0.946"
           inkscape:connector-curvature="0" />
        <path
           inkscape:connector-curvature="0"
           d="m -676.31309,-1120.0386 c 0.0924,-0.5369 0.60201,-0.8976 1.13906,-0.8062 10e-6,0 10e-6,0 2e-5,0 0.53704,0.091 0.89864,0.6005 0.80817,1.1377 0,0 0,0 0,0 -0.0905,0.5372 -0.59886,0.8997 -1.13623,0.8102 0,0 0,0 0,0 -0.53737,-0.09 -0.90076,-0.5973 -0.81218,-1.1348"
           style="opacity:1;fill:#266bb3;fill-opacity:0.99168695;stroke:none;stroke-width:74.89224243;stroke-miterlimit:4;stroke-dasharray:none;stroke-opacity:1"
           id="path25522" />
        <path
           inkscape:connector-curvature="0"
           d="m -673.35501,-1121.5288 c 0.18473,-0.3909 0.65112,-0.5584 1.04236,-0.3744 10e-6,0 10e-6,0 10e-6,0 0.39125,0.184 0.55958,0.6501 0.37623,1.0417 0,0 0,0 0,0 -0.18335,0.3916 -0.64914,0.5607 -1.04103,0.3781 0,0 -10e-6,0 -10e-6,0 -0.39189,-0.1827 -0.56187,-0.6482 -0.3799,-1.0404"
           style="opacity:1;fill:#3547c0;fill-opacity:0.98823529;stroke:none;stroke-width:74.89224243;stroke-miterlimit:4;stroke-dasharray:none;stroke-opacity:1"
           id="path25524" />
        <path
           inkscape:connector-curvature="0"
           d="m -670.39692,-1123.019 c 0.27709,-0.245 0.70021,-0.2193 0.94565,0.057 0,0 10e-6,0 10e-6,0 0.24544,0.2766 0.22051,0.6998 -0.0557,0.9457 0,0 0,0 0,0 -0.27623,0.246 -0.69943,0.2218 -0.94585,-0.054 0,0 0,0 0,0 -0.24641,-0.2758 -0.22298,-0.6991 0.0524,-0.946"
           style="opacity:1;fill:#4523c8;fill-opacity:1;stroke:none;stroke-width:74.89224243;stroke-miterlimit:4;stroke-dasharray:none;stroke-opacity:1"
           id="path25526" />
        <path
           inkscape:connector-curvature="0"
           d="m -665.94883,-1133.6133 c 0.44352,0.3516 0.51852,0.9961 0.16761,1.4402 -1e-5,0 -1e-5,0 -1e-5,0 -0.35091,0.4441 -0.99519,0.5203 -1.43995,0.1701 0,0 -10e-6,0 -10e-6,0 -0.44475,-0.3501 -0.52201,-0.9942 -0.17266,-1.4396 0,0 0,0 0,0 0.34935,-0.4454 0.99336,-0.5238 1.43935,-0.1752"
           style="opacity:1;fill:#824b86;fill-opacity:0.92941176;stroke:none;stroke-width:74.89224243;stroke-miterlimit:4;stroke-dasharray:none;stroke-opacity:1"
           id="path26405" />
        <path
           inkscape:connector-curvature="0"
           d="m -666.13258,-1130.3525 c 0.29568,0.3619 0.24244,0.8949 -0.119,1.1913 0,0 0,0 0,0 -0.36144,0.2963 -0.89455,0.244 -1.19151,-0.1169 0,0 0,0 0,0 -0.29696,-0.361 -0.24559,-0.8942 0.11481,-1.1918 0,0 0,0 0,0 0.36039,-0.2975 0.89369,-0.2471 1.19191,0.1128"
           style="opacity:1;fill:#7333a0;fill-opacity:1;stroke:none;stroke-width:74.89224243;stroke-miterlimit:4;stroke-dasharray:none;stroke-opacity:1"
           id="path26407" />
        <path
           inkscape:connector-curvature="0"
           d="m -666.31633,-1127.0917 c 0.14784,0.3722 -0.0336,0.7938 -0.4056,0.9423 0,0 0,0 -10e-6,0 -0.37195,0.1485 -0.79391,-0.032 -0.94306,-0.4039 0,0 0,0 0,0 -0.14915,-0.3717 0.0308,-0.794 0.40228,-0.9438 10e-6,0 10e-6,0 10e-6,0 0.37144,-0.1498 0.79402,0.029 0.94448,0.4006"
           style="opacity:1;fill:#6319ba;fill-opacity:1;stroke:none;stroke-width:74.89224243;stroke-miterlimit:4;stroke-dasharray:none;stroke-opacity:1"
           id="path26409" />
        <path
           inkscape:connector-curvature="0"
           d="m -663.45909,-1132.94 c 0.33739,0.4545 0.24304,1.0963 -0.21087,1.4345 0,0 0,0 0,0 -0.45391,0.3382 -1.09593,0.245 -1.43492,-0.2083 0,0 -10e-6,0 -10e-6,0 -0.33898,-0.4533 -0.24688,-1.0955 0.20583,-1.4353 0,0 0,0 0,0 0.45272,-0.3398 1.09507,-0.2488 1.43565,0.2033"
           style="opacity:1;fill:#9d4c6a;fill-opacity:0.91372549;stroke:none;stroke-width:74.89224243;stroke-miterlimit:4;stroke-dasharray:none;stroke-opacity:1"
           id="path26413" />
        <path
           inkscape:connector-curvature="0"
           d="m -664.48053,-1129.8379 c 0.19193,0.4262 0.003,0.9272 -0.42327,1.1199 -10e-6,0 -10e-6,0 -10e-6,0 -0.42581,0.1927 -0.92723,0 -1.12065,-0.4213 0,0 -10e-6,0 -10e-6,0 -0.19342,-0.4255 -0.006,-0.9272 0.41934,-1.1214 0,0 0,0 10e-6,0 0.42513,-0.1941 0.9272,-0.01 1.12212,0.4174"
           style="opacity:1;fill:#85338e;fill-opacity:1;stroke:none;stroke-width:74.89224243;stroke-miterlimit:4;stroke-dasharray:none;stroke-opacity:1"
           id="path26415" />
        <path
           inkscape:connector-curvature="0"
           d="m -665.50198,-1126.7358 c 0.0465,0.3978 -0.23795,0.7581 -0.63567,0.8053 -10e-6,0 -10e-6,0 -2e-5,0 -0.39771,0.047 -0.75851,-0.2366 -0.80637,-0.6342 -10e-6,0 -10e-6,0 -10e-6,0 -0.0479,-0.3977 0.23529,-0.759 0.63285,-0.8075 0,0 0,0 10e-6,0 0.39754,-0.049 0.75934,0.2339 0.8086,0.6314"
           style="opacity:1;fill:#6c19b1;fill-opacity:1;stroke:none;stroke-width:74.89224243;stroke-miterlimit:4;stroke-dasharray:none;stroke-opacity:1"
           id="path26417" />
        <path
           inkscape:connector-curvature="0"
           d="m -661.22845,-1131.6453 c 0.20826,0.5264 -0.049,1.122 -0.57497,1.3311 0,0 0,0 0,0 -0.52597,0.2092 -1.122,-0.047 -1.33211,-0.5726 0,0 0,0 0,0 -0.2101,-0.5256 0.0451,-1.1221 0.57029,-1.3331 0,0 0,0 0,0 0.52523,-0.211 1.12216,0.043 1.33411,0.5679"
           style="opacity:1;fill:#b94c4f;fill-opacity:0.89411765;stroke:none;stroke-width:74.89224243;stroke-miterlimit:4;stroke-dasharray:none;stroke-opacity:1"
           id="path26421" />
        <path
           inkscape:connector-curvature="0"
           d="m -663.01798,-1128.9132 c 0.0751,0.4613 -0.23753,0.8963 -0.6987,0.9722 0,0 -10e-6,0 -10e-6,0 -0.46117,0.076 -0.89671,-0.2359 -0.97342,-0.697 0,0 -10e-6,0 -10e-6,0 -0.0767,-0.461 0.23439,-0.8971 0.69529,-0.9746 0,0 0,0 0,0 0.4609,-0.078 0.89754,0.2328 0.97587,0.6935"
           style="opacity:1;fill:#97337c;fill-opacity:1;stroke:none;stroke-width:74.89224243;stroke-miterlimit:4;stroke-dasharray:none;stroke-opacity:1"
           id="path26423" />
        <path
           inkscape:connector-curvature="0"
           d="m -664.80751,-1126.1811 c -0.0581,0.3962 -0.42606,0.6707 -0.82244,0.6133 0,0 0,0 -10e-6,0 -0.39636,-0.057 -0.67142,-0.4249 -0.61474,-0.8214 0,0 0,0 0,0 0.0567,-0.3965 0.4237,-0.6722 0.82027,-0.6162 10e-6,0 10e-6,0 2e-5,0 0.39656,0.056 0.67291,0.4225 0.61762,0.8192"
           style="opacity:1;fill:#7519a8;fill-opacity:1;stroke:none;stroke-width:74.89224243;stroke-miterlimit:4;stroke-dasharray:none;stroke-opacity:1"
           id="path26425" />
        <path
           inkscape:connector-curvature="0"
           d="m -659.40892,-1129.8173 c 0.0649,0.5623 -0.33771,1.071 -0.8999,1.137 0,0 0,-10e-5 0,-10e-5 -0.56219,0.066 -1.07159,-0.3358 -1.13851,-0.8978 0,0 0,0 0,-10e-5 -0.0669,-0.562 0.33394,-1.0721 0.89589,-1.14 0,0 0,0 10e-6,0 0.56195,-0.068 1.07276,0.332 1.14165,0.8939"
           style="opacity:1;fill:#d44c35;fill-opacity:1;stroke:none;stroke-width:74.89224243;stroke-miterlimit:4;stroke-dasharray:none;stroke-opacity:1"
           id="path26429" />
        <path
           inkscape:connector-curvature="0"
           d="m -661.84459,-1127.6415 c -0.0469,0.4651 -0.46141,0.8043 -0.92652,0.7583 0,0 0,0 0,0 -0.4651,-0.046 -0.80509,-0.46 -0.75987,-0.9252 0,0 0,0 0,0 0.0452,-0.4652 0.45859,-0.8059 0.92385,-0.7615 0,0 10e-6,0 10e-6,0 0.46526,0.044 0.8067,0.4572 0.76311,0.9225"
           style="opacity:1;fill:#aa336a;fill-opacity:1;stroke:none;stroke-width:74.89224243;stroke-miterlimit:4;stroke-dasharray:none;stroke-opacity:1"
           id="path26431" />
        <path
           inkscape:connector-curvature="0"
           d="m -664.28025,-1125.4657 c -0.15866,0.3678 -0.58513,0.5376 -0.95315,0.3796 0,0 -1e-5,0 -1e-5,0 -0.36801,-0.158 -0.53858,-0.5842 -0.38121,-0.9525 -1e-5,0 0,0 -1e-5,0 0.15737,-0.3683 0.58324,-0.5396 0.95181,-0.3829 10e-6,0 10e-6,0 10e-6,0 0.36857,0.1567 0.54063,0.5823 0.38457,0.9511"
           style="opacity:1;fill:#7f199f;fill-opacity:1;stroke:none;stroke-width:74.89224243;stroke-miterlimit:4;stroke-dasharray:none;stroke-opacity:1"
           id="path26433" />
        <path
           inkscape:connector-curvature="0"
           d="m -658.12452,-1127.5807 c -0.0828,0.56 -0.60339,0.9472 -1.16349,0.8653 0,0 0,0 0,0 -0.56009,-0.082 -0.94816,-0.6017 -0.86732,-1.1619 0,0 0,0 0,-10e-5 0.0809,-0.5602 0.60006,-0.9492 1.16044,-0.8693 0,0 0,0 0,0 0.56038,0.08 0.95027,0.5984 0.8714,1.1589"
           style="opacity:1;fill:#d44c35;fill-opacity:1;stroke:none;stroke-width:74.89224243;stroke-miterlimit:4;stroke-dasharray:none;stroke-opacity:1"
           id="path26437" />
        <path
           inkscape:connector-curvature="0"
           d="m -661.04033,-1126.1094 c -0.16562,0.4371 -0.65385,0.6575 -1.09119,0.4926 0,0 -10e-6,0 -10e-6,0 -0.43733,-0.1648 -0.65859,-0.6527 -0.49451,-1.0903 0,0 0,0 0,0 0.16409,-0.4376 0.65154,-0.6598 1.08946,-0.4964 0,0 0,0 0,0 0.43791,0.1633 0.66089,0.6503 0.49835,1.0885"
           style="opacity:1;fill:#aa336a;fill-opacity:1;stroke:none;stroke-width:74.89224243;stroke-miterlimit:4;stroke-dasharray:none;stroke-opacity:1"
           id="path26439" />
        <path
           inkscape:connector-curvature="0"
           d="m -663.95614,-1124.6381 c -0.24843,0.3141 -0.70432,0.3678 -1.0189,0.1199 0,0 -10e-6,0 -10e-6,0 -0.31457,-0.2479 -0.36903,-0.7037 -0.12171,-1.0187 0,0 0,0 0,0 0.24733,-0.315 0.70303,-0.3703 1.01848,-0.1235 0,0 10e-6,0 10e-6,0 0.31544,0.2468 0.3715,0.7024 0.12529,1.0183"
           style="opacity:1;fill:#7f199f;fill-opacity:1;stroke:none;stroke-width:74.89224243;stroke-miterlimit:4;stroke-dasharray:none;stroke-opacity:1"
           id="path26441" />
        <path
           inkscape:connector-curvature="0"
           d="m -657.46275,-1125.0878 c -0.22492,0.5194 -0.82796,0.7586 -1.3478,0.5346 0,0 0,0 0,0 -0.51983,-0.224 -0.76012,-0.8266 -0.53703,-1.3468 0,0 0,0 0,0 0.22309,-0.5202 0.82529,-0.7616 1.3459,-0.5394 10e-6,0 10e-6,0 10e-6,0 0.52061,0.2222 0.76302,0.8239 0.54176,1.345"
           style="opacity:1;fill:#be563a;fill-opacity:0.89411765;stroke:none;stroke-width:74.89224243;stroke-miterlimit:4;stroke-dasharray:none;stroke-opacity:1"
           id="path26445" />
        <path
           inkscape:connector-curvature="0"
           d="m -660.66,-1124.4213 c -0.2731,0.3792 -0.80174,0.4658 -1.18151,0.1933 0,0 0,0 0,0 -0.37977,-0.2724 -0.46723,-0.8009 -0.19547,-1.1811 0,0 0,0 0,0 0.27176,-0.3803 0.8001,-0.4687 1.18082,-0.1976 0,0 0,0 0,0 0.38072,0.2711 0.47004,0.7993 0.19962,1.1805"
           style="opacity:1;fill:#9b396e;fill-opacity:1;stroke:none;stroke-width:74.89224243;stroke-miterlimit:4;stroke-dasharray:none;stroke-opacity:1"
           id="path26447" />
        <path
           inkscape:connector-curvature="0"
           d="m -663.85725,-1123.7549 c -0.32128,0.2392 -0.77552,0.173 -1.01523,-0.1478 0,-10e-5 0,-10e-5 0,-10e-5 -0.2397,-0.3208 -0.17433,-0.7752 0.14609,-1.0154 0,0 0,0 0,0 0.32044,-0.2403 0.77491,-0.1757 1.01574,0.1443 0,0 10e-6,0 10e-6,0 0.24082,0.32 0.17706,0.7746 -0.14252,1.016"
           style="opacity:1;fill:#771ca0;fill-opacity:1;stroke:none;stroke-width:74.89224243;stroke-miterlimit:4;stroke-dasharray:none;stroke-opacity:1"
           id="path26449" />
        <path
           inkscape:connector-curvature="0"
           d="m -657.46874,-1122.5086 c -0.35169,0.4435 -0.9961,0.5185 -1.44025,0.1676 0,0 0,0 0,0 -0.44414,-0.3509 -0.52027,-0.9952 -0.17014,-1.44 0,0 10e-6,0 10e-6,0 0.35013,-0.4447 0.99427,-0.522 1.43964,-0.1727 0,0 0,0 0,0 0.44538,0.3494 0.52377,0.9934 0.17521,1.4394"
           style="opacity:1;fill:#a9603f;fill-opacity:0.89467103;stroke:none;stroke-width:74.89224243;stroke-miterlimit:4;stroke-dasharray:none;stroke-opacity:1"
           id="path26453" />
        <path
           inkscape:connector-curvature="0"
           d="m -660.72954,-1122.6924 c -0.36195,0.2957 -0.89498,0.2425 -1.1913,-0.119 0,0 0,0 0,0 -0.29632,-0.3614 -0.24401,-0.8945 0.1169,-1.1915 0,0 0,0 0,0 0.36092,-0.297 0.89413,-0.2456 1.19171,0.1148 0,0 0,0 0,0 0.29759,0.3604 0.24716,0.8937 -0.1127,1.1919"
           style="opacity:1;fill:#8d3f72;fill-opacity:0.99607843;stroke:none;stroke-width:74.89224243;stroke-miterlimit:4;stroke-dasharray:none;stroke-opacity:1"
           id="path26455" />
        <path
           inkscape:connector-curvature="0"
           d="m -663.99033,-1122.8761 c -0.37223,0.1478 -0.79387,-0.034 -0.94237,-0.4056 0,0 0,0 0,0 -0.14849,-0.372 0.0322,-0.794 0.40394,-0.9431 0,0 1e-5,0 1e-5,0 0.3717,-0.1492 0.79397,0.031 0.94377,0.4023 0,0 0,0 0,0 0.1498,0.3714 -0.0294,0.794 -0.40062,0.9445"
           style="opacity:1;fill:#7020a2;fill-opacity:1;stroke:none;stroke-width:74.89224243;stroke-miterlimit:4;stroke-dasharray:none;stroke-opacity:1"
           id="path26457" />
        <path
           inkscape:connector-curvature="0"
           d="m -658.14205,-1120.0189 c -0.4545,0.3374 -1.09637,0.243 -1.43456,-0.2109 0,0 0,0 0,0 -0.33818,-0.4539 -0.24497,-1.0959 0.20835,-1.4349 0,0 0,0 0,0 0.45332,-0.339 1.0955,-0.2469 1.43528,0.2058 0,0 0,0 0,0 0.33978,0.4528 0.24882,1.0951 -0.20329,1.4357"
           style="opacity:1;fill:#d44c35;fill-opacity:1;stroke:none;stroke-width:74.89224243;stroke-miterlimit:4;stroke-dasharray:none;stroke-opacity:1"
           id="path26461" />
        <path
           inkscape:connector-curvature="0"
           d="m -661.24419,-1121.0403 c -0.42615,0.1919 -0.92723,0 -1.11991,-0.4233 0,0 0,0 0,0 -0.19267,-0.4258 -0.004,-0.9272 0.4213,-1.1207 0,0 0,0 1e-5,0 0.42547,-0.1934 0.92722,-0.01 1.12139,0.4194 0,0 0,0 -10e-6,0 0.19417,0.4251 0.007,0.9272 -0.41735,1.1221"
           style="opacity:1;fill:#aa336a;fill-opacity:1;stroke:none;stroke-width:74.89224243;stroke-miterlimit:4;stroke-dasharray:none;stroke-opacity:1"
           id="path26463" />
        <path
           inkscape:connector-curvature="0"
           d="m -664.34632,-1122.0618 c -0.3978,0.046 -0.75811,-0.2379 -0.80527,-0.6357 0,0 0,0 0,0 -0.0472,-0.3977 0.23662,-0.7585 0.63426,-0.8063 0,-10e-5 0,-10e-5 0,-10e-5 0.39764,-0.048 0.75894,0.2353 0.8075,0.6329 0,0 0,0 0,0 0.0486,0.3975 -0.23396,0.7593 -0.63142,0.8086"
           style="opacity:1;fill:#7f199f;fill-opacity:1;stroke:none;stroke-width:74.89224243;stroke-miterlimit:4;stroke-dasharray:none;stroke-opacity:1"
           id="path26465" />
        <path
           id="path26126"
           style="opacity:1;fill:#936a46;fill-opacity:0.80210003;stroke:none;stroke-width:74.89224243;stroke-miterlimit:4;stroke-dasharray:none;stroke-opacity:1"
           d="m -658.14205,-1120.0189 c -0.4545,0.3374 -1.09637,0.243 -1.43456,-0.2109 0,0 0,0 0,0 -0.33818,-0.4539 -0.24497,-1.0959 0.20835,-1.4349 0,0 0,0 0,0 0.45332,-0.339 1.0955,-0.2469 1.43528,0.2058 0,0 0,0 0,0 0.33978,0.4528 0.24882,1.0951 -0.20329,1.4357"
           inkscape:connector-curvature="0" />
        <path
           id="path26128"
           style="opacity:1;fill:#7e4777;fill-opacity:0.99215686;stroke:none;stroke-width:74.89224243;stroke-miterlimit:4;stroke-dasharray:none;stroke-opacity:1"
           d="m -661.24419,-1121.0403 c -0.42615,0.1919 -0.92723,0 -1.11991,-0.4233 0,0 0,0 0,0 -0.19267,-0.4258 -0.004,-0.9272 0.4213,-1.1207 0,0 0,0 1e-5,0 0.42547,-0.1934 0.92722,-0.01 1.12139,0.4194 0,0 0,0 -10e-6,0 0.19417,0.4251 0.007,0.9272 -0.41735,1.1221"
           inkscape:connector-curvature="0" />
        <path
           id="path26130"
           style="opacity:1;fill:#6923a4;fill-opacity:1;stroke:none;stroke-width:74.89224243;stroke-miterlimit:4;stroke-dasharray:none;stroke-opacity:1"
           d="m -664.34632,-1122.0618 c -0.3978,0.046 -0.75811,-0.2379 -0.80527,-0.6357 0,0 0,0 0,0 -0.0472,-0.3977 0.23662,-0.7585 0.63426,-0.8063 0,-10e-5 0,-10e-5 0,-10e-5 0.39764,-0.048 0.75894,0.2353 0.8075,0.6329 0,0 0,0 0,0 0.0486,0.3975 -0.23396,0.7593 -0.63142,0.8086"
           inkscape:connector-curvature="0" />
        <path
           id="path27085"
           style="opacity:1;fill:#7d764c;fill-opacity:0.94901961;stroke:none;stroke-width:74.89224243;stroke-miterlimit:4;stroke-dasharray:none;stroke-opacity:1"
           d="m -659.08905,-1117.9789 c -0.44353,0.3517 -1.08807,0.2779 -1.44054,-0.165 -10e-6,0 -10e-6,0 -10e-6,0 -0.35247,-0.443 -0.27974,-1.0876 0.16255,-1.4409 0,0 0,0 10e-6,0 0.44228,-0.3532 1.08708,-0.2816 1.4411,0.16 0,0 10e-6,0 10e-6,0 0.35402,0.4417 0.28356,1.0866 -0.15748,1.4414"
           inkscape:connector-curvature="0" />
        <path
           id="path27087"
           style="opacity:1;fill:#704d7c;fill-opacity:0.98178406;stroke:none;stroke-width:74.89224243;stroke-miterlimit:4;stroke-dasharray:none;stroke-opacity:1"
           d="m -661.55939,-1119.9296 c -0.29569,0.362 -0.82862,0.4162 -1.1911,0.1211 0,0 0,0 -10e-6,0 -0.36247,-0.295 -0.41758,-0.8279 -0.12317,-1.1909 0,0 0,0 10e-6,0 0.2944,-0.3629 0.82714,-0.419 1.19065,-0.1252 0,0 0,0 0,0 0.36351,0.2937 0.4205,0.8264 0.12737,1.1904"
           inkscape:connector-curvature="0" />
        <path
           id="path27089"
           style="opacity:1;fill:#6227a6;fill-opacity:1;stroke:none;stroke-width:74.89224243;stroke-miterlimit:4;stroke-dasharray:none;stroke-opacity:1"
           d="m -664.02974,-1121.8803 c -0.14784,0.3723 -0.56916,0.5545 -0.94164,0.4073 -1e-5,0 -1e-5,0 -2e-5,0 -0.37247,-0.1472 -0.55542,-0.5682 -0.40889,-0.9409 0,0 0,0 0,0 0.14654,-0.3728 0.56721,-0.5565 0.94021,-0.4106 0,0 0,0 0,0 0.37299,0.1459 0.55743,0.5662 0.41221,0.9395"
           inkscape:connector-curvature="0" />
        <path
           id="path27093"
           style="opacity:1;fill:#7d764c;fill-opacity:0.8547526;stroke:none;stroke-width:74.89224243;stroke-miterlimit:4;stroke-dasharray:none;stroke-opacity:1"
           d="m -660.87625,-1116.0785 c -0.51944,0.2249 -1.1229,-0.013 -1.34873,-0.5323 0,0 0,0 0,0 -0.22583,-0.5191 0.0113,-1.123 0.52992,-1.3497 0,0 0,0 10e-6,0 0.51864,-0.2267 1.12293,0.01 1.35058,0.5275 0,0 10e-6,0 10e-6,10e-5 0.22764,0.5182 -0.007,1.1229 -0.52517,1.3515"
           inkscape:connector-curvature="0" />
        <path
           id="path27095"
           style="opacity:1;fill:#605480;fill-opacity:0.98823529;stroke:none;stroke-width:74.89224243;stroke-miterlimit:4;stroke-dasharray:none;stroke-opacity:1"
           d="m -662.75754,-1118.6021 c -0.37929,0.2731 -0.90809,0.1875 -1.18185,-0.1914 0,0 0,0 -10e-6,0 -0.27375,-0.3788 -0.18908,-0.9077 0.18925,-1.1821 0,0 0,0 10e-6,0 0.37832,-0.2745 0.90741,-0.1907 1.1825,0.1871 0,0 0,0 10e-6,0 0.27508,0.3779 0.19227,0.9071 -0.18508,1.1829"
           inkscape:connector-curvature="0" />
        <path
           id="path27097"
           style="opacity:1;fill:#5b2aa8;fill-opacity:1;stroke:none;stroke-width:74.89224243;stroke-miterlimit:4;stroke-dasharray:none;stroke-opacity:1"
           d="m -664.63883,-1121.1257 c -0.23914,0.3212 -0.69327,0.3882 -1.01496,0.1496 -1e-5,0 -1e-5,0 -2e-5,0 -0.32168,-0.2386 -0.38944,-0.6926 -0.15143,-1.0147 0,0 0,0 10e-6,0 0.23801,-0.3221 0.69189,-0.3906 1.01442,-0.1532 0,0 0,0 0,0 0.32253,0.2374 0.39189,0.6912 0.15501,1.0142"
           inkscape:connector-curvature="0" />
        <path
           id="path27101"
           style="opacity:1;fill:#528b57;fill-opacity:0.98431373;stroke:none;stroke-width:74.89224243;stroke-miterlimit:4;stroke-dasharray:none;stroke-opacity:1"
           d="m -663.09439,-1114.7055 c -0.55995,0.083 -1.08121,-0.3035 -1.16501,-0.8633 0,0 0,0 0,0 -0.0838,-0.5598 0.30153,-1.0817 0.86118,-1.1665 1e-5,0 1e-5,0 2e-5,0 0.55965,-0.085 1.08226,0.2996 1.16802,0.8591 0,0 0,10e-5 0,10e-5 0.0858,0.5595 -0.29772,1.0827 -0.85707,1.1695"
           inkscape:connector-curvature="0" />
        <path
           id="path27103"
           style="opacity:1;fill:#525a85;fill-opacity:0.98431373;stroke:none;stroke-width:74.89224243;stroke-miterlimit:4;stroke-dasharray:none;stroke-opacity:1"
           d="m -664.25842,-1117.63 c -0.43705,0.1656 -0.92567,-0.054 -1.09206,-0.4907 -1e-5,0 -1e-5,0 -1e-5,0 -0.16639,-0.4368 0.0523,-0.9258 0.48877,-1.093 0,0 0,0 10e-6,0 0.43646,-0.1671 0.92584,0.051 1.09377,0.4869 0,0 0,0 0,0 0.16792,0.4362 -0.049,0.9259 -0.48492,1.0946"
           inkscape:connector-curvature="0" />
        <path
           id="path27105"
           style="opacity:1;fill:#542eaa;fill-opacity:1;stroke:none;stroke-width:74.89224243;stroke-miterlimit:4;stroke-dasharray:none;stroke-opacity:1"
           d="m -665.42245,-1120.5546 c -0.31415,0.2485 -0.77013,0.1956 -1.01912,-0.1181 0,0 -1e-5,0 -1e-5,0 -0.24898,-0.3137 -0.19692,-0.7698 0.11635,-1.0193 0,0 0,0 0,0 0.31327,-0.2496 0.76944,-0.1983 1.01952,0.1145 10e-6,0 0,0 10e-6,0 0.25008,0.3129 0.19963,0.7691 -0.11276,1.0197"
           inkscape:connector-curvature="0" />
        <path
           id="path27109"
           style="opacity:1;fill:#3e965e;fill-opacity:1;stroke:none;stroke-width:74.89224243;stroke-miterlimit:4;stroke-dasharray:none;stroke-opacity:1"
           d="m -665.59231,-1113.9534 c -0.5623,-0.065 -0.96584,-0.5729 -0.90189,-1.1353 0,0 0,0 0,0 0.0639,-0.5625 0.57123,-0.9669 1.13376,-0.9039 0,0 0,0 1e-5,0 0.56252,0.063 0.96783,0.5695 0.90586,1.1321 0,0 0,0 0,10e-5 -0.062,0.5626 -0.56782,0.9688 -1.13057,0.9078"
           inkscape:connector-curvature="0" />
        <path
           id="path27111"
           style="opacity:1;fill:#466485;fill-opacity:1;stroke:none;stroke-width:74.89224243;stroke-miterlimit:4;stroke-dasharray:none;stroke-opacity:1"
           d="m -665.95976,-1117.0795 c -0.46502,0.047 -0.88017,-0.2917 -0.92785,-0.7566 0,0 0,-10e-5 -10e-6,-10e-5 -0.0477,-0.4649 0.29013,-0.8806 0.75499,-0.9291 0,0 0,0 0,0 0.46485,-0.048 0.88119,0.2885 0.9305,0.7533 0,0 0,0 0,0 0.0493,0.4648 -0.28702,0.8817 -0.7517,0.9318"
           inkscape:connector-curvature="0" />
        <path
           id="path27113"
           style="opacity:1;fill:#4d32ac;fill-opacity:1;stroke:none;stroke-width:74.89224243;stroke-miterlimit:4;stroke-dasharray:none;stroke-opacity:1"
           d="m -666.32721,-1120.2057 c -0.36774,0.1587 -0.7945,-0.01 -0.95381,-0.3779 0,0 -10e-6,0 -10e-6,0 -0.1593,-0.3674 0.009,-0.7945 0.37621,-0.9544 0,0 0,0 0,0 0.36718,-0.16 0.79453,0.01 0.95513,0.3745 0,0 0,0 0,0 0.1606,0.3669 -0.006,0.7945 -0.37283,0.9558"
           inkscape:connector-curvature="0" />
        <path
           id="path27117"
           style="opacity:1;fill:#3e965e;fill-opacity:1;stroke:none;stroke-width:74.89224243;stroke-miterlimit:4;stroke-dasharray:none;stroke-opacity:1"
           d="m -668.19978,-1113.8734 c -0.52634,-0.2083 -0.78465,-0.8034 -0.57731,-1.3301 0,0 0,0 0,0 0.20733,-0.5267 0.802,-0.786 1.32906,-0.5796 10e-6,0 10e-6,0 10e-6,0 0.52706,0.2064 0.78746,0.8006 0.58198,1.328 0,0 0,0 -10e-6,0 -0.20548,0.5274 -0.79922,0.7889 -1.32701,0.5843"
           inkscape:connector-curvature="0" />
        <path
           id="path27119"
           style="opacity:1;fill:#466485;fill-opacity:1;stroke:none;stroke-width:74.89224243;stroke-miterlimit:4;stroke-dasharray:none;stroke-opacity:1"
           d="m -667.74561,-1116.9881 c -0.4613,-0.075 -0.77469,-0.5096 -0.70041,-0.971 0,0 0,0 0,0 0.0743,-0.4614 0.50818,-0.7756 0.96974,-0.7021 10e-6,0 10e-6,0 10e-6,0 0.46156,0.073 0.77647,0.5068 0.70382,0.9685 -10e-6,0 -10e-6,0 -10e-6,0 -0.0727,0.4617 -0.50544,0.7774 -0.96726,0.7055"
           inkscape:connector-curvature="0" />
        <path
           id="path27121"
           style="opacity:1;fill:#4d32ac;fill-opacity:1;stroke:none;stroke-width:74.89224243;stroke-miterlimit:4;stroke-dasharray:none;stroke-opacity:1"
           d="m -667.29143,-1120.1028 c -0.39627,0.058 -0.76474,-0.2157 -0.82351,-0.6119 0,0 -10e-6,0 -10e-6,0 -0.0588,-0.3962 0.21436,-0.7651 0.61042,-0.8246 1e-5,0 1e-5,0 1e-5,0 0.39606,-0.06 0.76549,0.213 0.82565,0.609 0,0 0,0 0,0 0.0602,0.3959 -0.21165,0.7658 -0.60751,0.8267"
           inkscape:connector-curvature="0" />
        <path
           id="path27125"
           style="opacity:1;fill:#388b73;fill-opacity:1;stroke:none;stroke-width:74.89224243;stroke-miterlimit:4;stroke-dasharray:none;stroke-opacity:1"
           d="m -670.73911,-1114.471 c -0.4545,-0.3374 -0.54998,-0.9791 -0.21339,-1.4342 0,0 0,0 0,0 0.33659,-0.4551 0.97812,-0.5517 1.4338,-0.2159 10e-6,0 10e-6,0 10e-6,0 0.45568,0.3358 0.55341,0.9772 0.21843,1.4334 -10e-6,0 -10e-6,0 -10e-6,0 -0.33499,0.4563 -0.97617,0.5552 -1.43303,0.221"
           inkscape:connector-curvature="0" />
        <path
           id="path27127"
           style="opacity:1;fill:#415a96;fill-opacity:0.98431373;stroke:none;stroke-width:74.89224243;stroke-miterlimit:4;stroke-dasharray:none;stroke-opacity:1"
           d="m -669.49426,-1117.362 c -0.42615,-0.192 -0.61642,-0.6927 -0.42524,-1.1192 0,0 0,0 0,0 0.19118,-0.4265 0.6916,-0.6176 1.11842,-0.4272 0,0 0,0 10e-6,0 0.42682,0.1904 0.61884,0.6905 0.42916,1.1177 0,0 0,0 0,0 -0.18968,0.4271 -0.68942,0.62 -1.11691,0.4311"
           inkscape:connector-curvature="0" />
        <path
           id="path27129"
           style="opacity:1;fill:#4b2eb3;fill-opacity:1;stroke:none;stroke-width:74.89224243;stroke-miterlimit:4;stroke-dasharray:none;stroke-opacity:1"
           d="m -668.24941,-1120.2531 c -0.3978,-0.046 -0.68286,-0.4063 -0.63709,-0.8041 0,0 0,0 0,0 0.0458,-0.3979 0.40507,-0.6836 0.80303,-0.6385 1e-5,0 1e-5,0 1e-5,0 0.39796,0.045 0.68428,0.4038 0.63991,0.8019 0,0 0,0 0,0 -0.0444,0.398 -0.40266,0.685 -0.80078,0.6413"
           inkscape:connector-curvature="0" />
        <path
           id="path27133"
           style="opacity:1;fill:#328088;fill-opacity:0.98372204;stroke:none;stroke-width:74.89224243;stroke-miterlimit:4;stroke-dasharray:none;stroke-opacity:1"
           d="m -673.03725,-1115.7054 c -0.35169,-0.4436 -0.27783,-1.0881 0.16508,-1.4406 0,0 0,0 0,0 0.44291,-0.3525 1.08758,-0.2797 1.44083,0.1625 0,10e-5 0,10e-5 10e-6,10e-5 0.35324,0.4422 0.28164,1.087 -0.16002,1.4411 0,0 -10e-6,0 -10e-6,0 -0.44167,0.354 -1.08658,0.2835 -1.44138,-0.1575"
           inkscape:connector-curvature="0" />
        <path
           id="path27135"
           style="opacity:1;fill:#3d53a5;fill-opacity:0.98431373;stroke:none;stroke-width:74.89224243;stroke-miterlimit:4;stroke-dasharray:none;stroke-opacity:1"
           d="m -671.08656,-1118.1758 c -0.36195,-0.2957 -0.41613,-0.8286 -0.12109,-1.1911 0,0 0,0 0,0 0.29506,-0.3625 0.82789,-0.4176 1.19089,-0.1232 0,0 0,0 0,0 0.36299,0.2944 0.41904,0.8272 0.12527,1.1907 0,0 0,0 0,0 -0.29378,0.3635 -0.82641,0.4205 -1.19044,0.1274"
           inkscape:connector-curvature="0" />
        <path
           id="path27137"
           style="opacity:1;fill:#492aba;fill-opacity:1;stroke:none;stroke-width:74.89224243;stroke-miterlimit:4;stroke-dasharray:none;stroke-opacity:1"
           d="m -669.13587,-1120.6461 c -0.37222,-0.1479 -0.55443,-0.5692 -0.40725,-0.9417 0,0 0,0 0,0 0.1472,-0.3725 0.5682,-0.5554 0.94093,-0.4089 0,0 0,0 0,0 0.37274,0.1465 0.55644,0.5672 0.41056,0.9402 0,0 0,0 0,0 -0.14588,0.373 -0.56623,0.5575 -0.93948,0.4122"
           inkscape:connector-curvature="0" />
        <path
           id="path27141"
           style="opacity:1;fill:#3e965e;fill-opacity:1;stroke:none;stroke-width:74.89224243;stroke-miterlimit:4;stroke-dasharray:none;stroke-opacity:1"
           d="m -674.93757,-1117.4926 c -0.22492,-0.5195 0.0132,-1.1229 0.53229,-1.3488 0,0 0,0 0,0 0.51904,-0.2258 1.12292,0.011 1.34966,0.5299 0,0 10e-6,0 10e-6,10e-5 0.22673,0.5186 -0.009,1.1229 -0.52755,1.3505 -10e-6,0 -10e-6,0 -10e-6,0 -0.51825,0.2277 -1.12295,-0.01 -1.35151,-0.5251"
           inkscape:connector-curvature="0" />
        <path
           id="path27143"
           style="opacity:1;fill:#466485;fill-opacity:1;stroke:none;stroke-width:74.89224243;stroke-miterlimit:4;stroke-dasharray:none;stroke-opacity:1"
           d="m -672.41398,-1119.3739 c -0.2731,-0.3793 -0.1875,-0.9081 0.19131,-1.1819 10e-6,0 10e-6,0 10e-6,0 0.37881,-0.2737 0.90775,-0.1891 1.18218,0.1893 0,0 0,0 0,0 0.27442,0.3783 0.19068,0.9074 -0.18716,1.1825 0,0 -1e-5,0 -1e-5,0 -0.37784,0.2751 -0.90708,0.1922 -1.18283,-0.1851"
           inkscape:connector-curvature="0" />
        <path
           id="path27145"
           style="opacity:1;fill:#4d32ac;fill-opacity:1;stroke:none;stroke-width:74.89224243;stroke-miterlimit:4;stroke-dasharray:none;stroke-opacity:1"
           d="m -669.89039,-1121.2552 c -0.32127,-0.2392 -0.38823,-0.6933 -0.14966,-1.015 10e-6,0 10e-6,0 10e-6,0 0.23858,-0.3217 0.69258,-0.3894 1.01469,-0.1514 10e-6,0 10e-6,0 10e-6,0 0.32211,0.238 0.39067,0.6919 0.15322,1.0144 0,0 0,0 0,0 -0.23744,0.3225 -0.69121,0.3919 -1.01416,0.155"
           inkscape:connector-curvature="0" />
        <path
           inkscape:connector-curvature="0"
           d="m -674.93757,-1117.4926 c -0.22492,-0.5195 0.0132,-1.1229 0.53229,-1.3488 0,0 0,0 0,0 0.51904,-0.2258 1.12292,0.011 1.34966,0.5299 0,0 10e-6,0 10e-6,10e-5 0.22673,0.5186 -0.009,1.1229 -0.52755,1.3505 -10e-6,0 -10e-6,0 -10e-6,0 -0.51825,0.2277 -1.12295,-0.01 -1.35151,-0.5251"
           style="opacity:1;fill:#2c769e;fill-opacity:1;stroke:none;stroke-width:74.89224243;stroke-miterlimit:4;stroke-dasharray:none;stroke-opacity:1"
           id="path26770" />
        <path
           inkscape:connector-curvature="0"
           d="m -672.41398,-1119.3739 c -0.2731,-0.3793 -0.1875,-0.9081 0.19131,-1.1819 10e-6,0 10e-6,0 10e-6,0 0.37881,-0.2737 0.90775,-0.1891 1.18218,0.1893 0,0 0,0 0,0 0.27442,0.3783 0.19068,0.9074 -0.18716,1.1825 0,0 -1e-5,0 -1e-5,0 -0.37784,0.2751 -0.90708,0.1922 -1.18283,-0.1851"
           style="opacity:1;fill:#394db2;fill-opacity:0.98823529;stroke:none;stroke-width:74.89224243;stroke-miterlimit:4;stroke-dasharray:none;stroke-opacity:1"
           id="path26772" />
        <path
           inkscape:connector-curvature="0"
           d="m -669.89039,-1121.2552 c -0.32127,-0.2392 -0.38823,-0.6933 -0.14966,-1.015 10e-6,0 10e-6,0 10e-6,0 0.23858,-0.3217 0.69258,-0.3894 1.01469,-0.1514 10e-6,0 10e-6,0 10e-6,0 0.32211,0.238 0.39067,0.6919 0.15322,1.0144 0,0 0,0 0,0 -0.23744,0.3225 -0.69121,0.3919 -1.01416,0.155"
           style="opacity:1;fill:#4727c1;fill-opacity:1;stroke:none;stroke-width:74.89224243;stroke-miterlimit:4;stroke-dasharray:none;stroke-opacity:1"
           id="path26774" />
      </g>
      <text
         transform="scale(1.0000149,0.99998511)"
         id="text47162"
         y="-1117.8771"
         x="-630.83411"
         style="font-style:normal;font-variant:normal;font-weight:bold;font-stretch:condensed;font-size:20.84083366px;line-height:1.25;font-family:'Agency FB';-inkscape-font-specification:'Agency FB, Bold Condensed';font-variant-ligatures:normal;font-variant-caps:normal;font-variant-numeric:normal;font-feature-settings:normal;text-align:start;letter-spacing:0px;word-spacing:0px;writing-mode:lr-tb;text-anchor:start;opacity:1;fill:url(#linearGradient7842);fill-opacity:1;fill-rule:nonzero;stroke:none;stroke-width:0.2116667;stroke-linecap:round;stroke-linejoin:round;stroke-miterlimit:4;stroke-dasharray:none;stroke-dashoffset:0;stroke-opacity:1;paint-order:normal"
         xml:space="preserve"><tspan
           style="font-style:normal;font-variant:normal;font-weight:normal;font-stretch:normal;font-size:25.99270058px;font-family:'Poor Richard';-inkscape-font-specification:'Poor Richard, Normal';font-variant-ligatures:normal;font-variant-caps:normal;font-variant-numeric:normal;font-feature-settings:normal;text-align:start;writing-mode:lr-tb;text-anchor:start;fill:url(#linearGradient7842);fill-opacity:1;fill-rule:nonzero;stroke:none;stroke-width:0.2116667;stroke-linecap:round;stroke-linejoin:round;stroke-miterlimit:4;stroke-dasharray:none;stroke-dashoffset:0;stroke-opacity:1;paint-order:normal"
           y="-1117.8771"
           x="-630.83411"
           id="tspan47160"
           sodipodi:role="line">E<tspan
   id="tspan7274"
   style="font-style:normal;font-variant:normal;font-weight:normal;font-stretch:normal;font-size:14.11111164px;font-family:'Maiandra GD';-inkscape-font-specification:'Maiandra GD, Normal';font-variant-ligatures:normal;font-variant-caps:normal;font-variant-numeric:normal;font-feature-settings:normal;text-align:start;writing-mode:lr-tb;text-anchor:start;fill:url(#linearGradient7842);stroke-width:0.2116667">NTROPY</tspan></tspan></text>
    </g>
    <flowRoot
       xml:space="preserve"
       id="flowRoot7722"
       style="font-style:normal;font-variant:normal;font-weight:normal;font-stretch:normal;font-size:40px;line-height:1.25;font-family:Calibri;-inkscape-font-specification:'Calibri, Normal';font-variant-ligatures:normal;font-variant-caps:normal;font-variant-numeric:normal;font-feature-settings:normal;text-align:start;letter-spacing:0px;word-spacing:0px;writing-mode:lr-tb;text-anchor:start;fill:#000000;fill-opacity:1;stroke:none"
       transform="matrix(0.26458335,0,0,0.26458335,-648.40322,-1133.1105)"><flowRegion
         id="flowRegion7724"><rect
           id="rect7726"
           width="363.45288"
           height="135.05739"
           x="-19.091883"
           y="-32.580513" /></flowRegion><flowPara
         id="flowPara7728"></flowPara></flowRoot>  </g>
  <g
     id="g46969"
     transform="translate(-65.343199,38.606447)">
    <path
       d="m -735.06797,-1088.7761 c 0,0.2523 -0.10024,0.4943 -0.27866,0.6728 -1.6e-4,10e-5 -3.2e-4,3e-4 -4.8e-4,4e-4 -0.17838,0.1782 -0.42018,0.2782 -0.67229,0.2782 -2.2e-4,0 -4.4e-4,0 -6.7e-4,0 -0.25209,-1e-4 -0.49382,-0.1004 -0.67209,-0.2786 -3e-5,-10e-5 -6e-5,-10e-5 -9e-5,-10e-5 -0.17837,-0.1784 -0.27857,-0.4204 -0.27857,-0.6727 10e-6,0 10e-6,-10e-5 10e-6,-10e-5 3e-5,-0.2532 0.10083,-0.4948 0.2787,-0.6727 0.17788,-0.1779 0.4195,-0.2786 0.67271,-0.2786 5e-5,0 9e-5,0 1.4e-4,0 0.25321,0 0.49481,0.1008 0.67266,0.2787 0.17786,0.1779 0.27863,0.4195 0.27863,0.6727 0,0 0,0 0,0 0,0 0,0 0,0"
       style="opacity:1;fill:#7111b0;fill-opacity:1;stroke:none;stroke-width:3.96874928;stroke-miterlimit:4;stroke-dasharray:none;stroke-opacity:1"
       id="path46959"
       inkscape:connector-curvature="0" />
    <path
       d="m -732.4747,-1088.7761 c 10e-6,0.2282 -0.0907,0.4471 -0.25204,0.6085 -1.3e-4,10e-5 -2.6e-4,3e-4 -3.8e-4,4e-4 -0.16135,0.1611 -0.38007,0.2517 -0.60813,0.2517 -1.8e-4,0 -3.6e-4,0 -5.4e-4,0 -0.22804,-2e-4 -0.44671,-0.091 -0.60797,-0.2521 -6e-5,0 -1.2e-4,-10e-5 -1.8e-4,-2e-4 -0.16127,-0.1613 -0.25186,-0.3802 -0.25186,-0.6083 0,-10e-5 0,-2e-4 0,-3e-4 8e-5,-0.2299 0.0919,-0.448 0.25214,-0.6083 0.16029,-0.1602 0.37842,-0.2519 0.60841,-0.2519 9e-5,0 1.8e-4,0 2.7e-4,0 0.22998,0 0.44807,0.092 0.60831,0.2521 0.16025,0.1603 0.25197,0.3784 0.25197,0.6084 0,0 0,0 0,0 0,0 0,0 0,0"
       style="opacity:1;fill:#8d228d;fill-opacity:1;stroke:none;stroke-width:3.96874928;stroke-miterlimit:4;stroke-dasharray:none;stroke-opacity:1"
       id="path46961"
       inkscape:connector-curvature="0" />
    <path
       d="m -729.88142,-1088.7761 c 0,0.2041 -0.0811,0.3999 -0.22543,0.5443 -9e-5,10e-5 -1.9e-4,2e-4 -2.9e-4,2e-4 -0.14431,0.1442 -0.33996,0.2252 -0.54397,0.2252 -1.3e-4,0 -2.6e-4,0 -4e-4,0 -0.20399,-10e-5 -0.3996,-0.081 -0.54385,-0.2254 -9e-5,-10e-5 -1.8e-4,-2e-4 -2.7e-4,-3e-4 -0.14417,-0.1443 -0.22516,-0.34 -0.22516,-0.544 10e-6,-10e-5 10e-6,-3e-4 10e-6,-4e-4 1.1e-4,-0.2068 0.0829,-0.4013 0.22557,-0.544 0.1427,-0.1426 0.33733,-0.2252 0.5441,-0.2253 1.4e-4,0 2.7e-4,1e-4 4.1e-4,1e-4 0.20675,10e-5 0.40133,0.083 0.54396,0.2255 0.14264,0.1427 0.22531,0.3373 0.22532,0.5441 0,0 0,0 0,0 0,0 0,0 0,0"
       style="opacity:1;fill:#aa336a;fill-opacity:1;stroke:none;stroke-width:3.96874928;stroke-miterlimit:4;stroke-dasharray:none;stroke-opacity:1"
       id="path46963"
       inkscape:connector-curvature="0" />
    <path
       d="m -727.28814,-1088.7761 c 0,0.18 -0.0715,0.3527 -0.19882,0.48 -6e-5,10e-5 -1.2e-4,10e-5 -1.9e-4,2e-4 -0.12728,0.1272 -0.29986,0.1986 -0.47981,0.1986 -9e-5,0 -1.8e-4,0 -2.7e-4,0 -0.17994,0 -0.35249,-0.072 -0.47973,-0.1988 -1.2e-4,-10e-5 -2.4e-4,-2e-4 -3.6e-4,-4e-4 -0.12708,-0.1272 -0.19846,-0.2997 -0.19845,-0.4796 0,-2e-4 0,-4e-4 0,-5e-4 1.6e-4,-0.1836 0.0739,-0.3546 0.19901,-0.4796 0.12511,-0.125 0.29625,-0.1987 0.4798,-0.1987 1.8e-4,0 3.6e-4,0 5.4e-4,0 0.18352,2e-4 0.35459,0.074 0.47961,0.199 0.12503,0.1251 0.19865,0.2962 0.19867,0.4798 0,0 0,0 0,0 0,0 0,0 0,0"
       style="opacity:1;fill:#c64446;fill-opacity:1;stroke:none;stroke-width:3.96874928;stroke-miterlimit:4;stroke-dasharray:none;stroke-opacity:1"
       id="path46965"
       inkscape:connector-curvature="0" />
    <path
       d="m -724.69487,-1088.7761 c 1e-5,0.1559 -0.0619,0.3055 -0.17219,0.4158 -4e-5,0 -7e-5,0 -10e-5,10e-5 -0.11025,0.1102 -0.25976,0.1721 -0.41566,0.1721 -4e-5,0 -8e-5,0 -1.3e-4,0 -0.15589,-10e-5 -0.30538,-0.062 -0.41561,-0.1722 -1.5e-4,-2e-4 -3e-4,-4e-4 -4.5e-4,-5e-4 -0.10998,-0.1102 -0.17175,-0.2596 -0.17175,-0.4153 10e-6,-2e-4 10e-6,-4e-4 10e-6,-7e-4 1.9e-4,-0.1603 0.0649,-0.3078 0.17244,-0.4152 0.10752,-0.1074 0.25516,-0.172 0.41549,-0.172 2.3e-4,0 4.5e-4,0 6.8e-4,0 0.16029,2e-4 0.30786,0.065 0.41527,0.1724 0.1074,0.1075 0.17199,0.2552 0.172,0.4155 0,0 0,0 0,0 0,0 0,0 0,0"
       style="opacity:1;fill:#e25423;fill-opacity:1;stroke:none;stroke-width:3.96874928;stroke-miterlimit:4;stroke-dasharray:none;stroke-opacity:1"
       id="path46967"
       inkscape:connector-curvature="0" />
  </g>
  <g
     id="g55099"
     transform="translate(-65.343199,38.606447)">
    <path
       d="m -737.66125,-1068.0063 c 0,0.2764 -0.10981,0.5415 -0.30528,0.737 -0.19546,0.1955 -0.46058,0.3053 -0.73701,0.3053 -0.27643,0 -0.54155,-0.1098 -0.73701,-0.3053 -0.19547,-0.1955 -0.30528,-0.4606 -0.30528,-0.737 0,-0.2764 0.10981,-0.5415 0.30528,-0.737 0.19546,-0.1955 0.46058,-0.3053 0.73701,-0.3053 0.27643,0 0.54155,0.1098 0.73701,0.3053 0.19547,0.1955 0.30528,0.4606 0.30528,0.737 0,0 0,0 0,0"
       style="opacity:1;fill:#5500d4;fill-opacity:1;stroke:none;stroke-width:3.96874928;stroke-miterlimit:4;stroke-dasharray:none;stroke-opacity:1"
       id="path55089"
       inkscape:connector-curvature="0" />
    <path
       d="m -737.66125,-1068.0063 c 0,0.2764 -0.10981,0.5415 -0.30528,0.737 -0.19546,0.1955 -0.46058,0.3053 -0.73701,0.3053 -0.27643,0 -0.54155,-0.1098 -0.73701,-0.3053 -0.19547,-0.1955 -0.30528,-0.4606 -0.30528,-0.737 0,-0.2764 0.10981,-0.5415 0.30528,-0.737 0.19546,-0.1955 0.46058,-0.3053 0.73701,-0.3053 0.27643,0 0.54155,0.1098 0.73701,0.3053 0.19547,0.1955 0.30528,0.4606 0.30528,0.737 0,0 0,0 0,0"
       style="opacity:1;fill:#5500d4;fill-opacity:1;stroke:none;stroke-width:3.96874928;stroke-miterlimit:4;stroke-dasharray:none;stroke-opacity:1"
       id="path55091"
       inkscape:connector-curvature="0" />
    <path
       d="m -737.66125,-1068.0063 c 0,0.2764 -0.10981,0.5415 -0.30528,0.737 -0.19546,0.1955 -0.46058,0.3053 -0.73701,0.3053 -0.27643,0 -0.54155,-0.1098 -0.73701,-0.3053 -0.19547,-0.1955 -0.30528,-0.4606 -0.30528,-0.737 0,-0.2764 0.10981,-0.5415 0.30528,-0.737 0.19546,-0.1955 0.46058,-0.3053 0.73701,-0.3053 0.27643,0 0.54155,0.1098 0.73701,0.3053 0.19547,0.1955 0.30528,0.4606 0.30528,0.737 0,0 0,0 0,0"
       style="opacity:1;fill:#5500d4;fill-opacity:1;stroke:none;stroke-width:3.96874928;stroke-miterlimit:4;stroke-dasharray:none;stroke-opacity:1"
       id="path55093"
       inkscape:connector-curvature="0" />
    <path
       d="m -737.66125,-1068.0063 c 0,0.2764 -0.10981,0.5415 -0.30528,0.737 -0.19546,0.1955 -0.46058,0.3053 -0.73701,0.3053 -0.27643,0 -0.54155,-0.1098 -0.73701,-0.3053 -0.19547,-0.1955 -0.30528,-0.4606 -0.30528,-0.737 0,-0.2764 0.10981,-0.5415 0.30528,-0.737 0.19546,-0.1955 0.46058,-0.3053 0.73701,-0.3053 0.27643,0 0.54155,0.1098 0.73701,0.3053 0.19547,0.1955 0.30528,0.4606 0.30528,0.737 0,0 0,0 0,0"
       style="opacity:1;fill:#5500d4;fill-opacity:1;stroke:none;stroke-width:3.96874928;stroke-miterlimit:4;stroke-dasharray:none;stroke-opacity:1"
       id="path55095"
       inkscape:connector-curvature="0" />
    <path
       d="m -737.66125,-1068.0063 c 0,0.2764 -0.10981,0.5415 -0.30528,0.737 -0.19546,0.1955 -0.46058,0.3053 -0.73701,0.3053 -0.27643,0 -0.54155,-0.1098 -0.73701,-0.3053 -0.19547,-0.1955 -0.30528,-0.4606 -0.30528,-0.737 0,-0.2764 0.10981,-0.5415 0.30528,-0.737 0.19546,-0.1955 0.46058,-0.3053 0.73701,-0.3053 0.27643,0 0.54155,0.1098 0.73701,0.3053 0.19547,0.1955 0.30528,0.4606 0.30528,0.737 0,0 0,0 0,0"
       style="opacity:1;fill:#5500d4;fill-opacity:1;stroke:none;stroke-width:3.96874928;stroke-miterlimit:4;stroke-dasharray:none;stroke-opacity:1"
       id="path55097"
       inkscape:connector-curvature="0" />
  </g>
  <g
     id="g55111"
     transform="translate(-65.343199,38.606447)">
    <path
       d="m -735.06797,-1068.0063 c 0,0.2523 -0.10024,0.4943 -0.27866,0.6728 -1.6e-4,10e-5 -3.2e-4,3e-4 -4.8e-4,4e-4 -0.17838,0.1782 -0.42018,0.2782 -0.67229,0.2782 -2.2e-4,0 -4.4e-4,0 -6.7e-4,0 -0.25209,-10e-5 -0.49382,-0.1004 -0.67209,-0.2786 -3e-5,-10e-5 -6e-5,-10e-5 -9e-5,-10e-5 -0.17837,-0.1784 -0.27857,-0.4204 -0.27857,-0.6727 10e-6,0 10e-6,-10e-5 10e-6,-10e-5 3e-5,-0.2532 0.10083,-0.4948 0.2787,-0.6727 0.17788,-0.1779 0.4195,-0.2786 0.67271,-0.2786 5e-5,0 9e-5,0 1.4e-4,0 0.25321,0 0.49481,0.1008 0.67266,0.2787 0.17786,0.1779 0.27863,0.4195 0.27863,0.6727 0,0 0,0 0,0 0,0 0,0 0,0"
       style="opacity:1;fill:#7111b0;fill-opacity:1;stroke:none;stroke-width:3.96874928;stroke-miterlimit:4;stroke-dasharray:none;stroke-opacity:1"
       id="path55101"
       inkscape:connector-curvature="0" />
    <path
       d="m -732.4747,-1068.0063 c 10e-6,0.2282 -0.0907,0.4471 -0.25204,0.6085 -1.3e-4,10e-5 -2.6e-4,3e-4 -3.8e-4,4e-4 -0.16135,0.1611 -0.38007,0.2517 -0.60813,0.2517 -1.8e-4,0 -3.6e-4,0 -5.4e-4,0 -0.22804,-2e-4 -0.44671,-0.091 -0.60797,-0.2521 -6e-5,0 -1.2e-4,-10e-5 -1.8e-4,-2e-4 -0.16127,-0.1613 -0.25186,-0.3802 -0.25186,-0.6083 0,-10e-5 0,-2e-4 0,-3e-4 8e-5,-0.2299 0.0919,-0.448 0.25214,-0.6083 0.16029,-0.1602 0.37842,-0.2519 0.60841,-0.2519 9e-5,0 1.8e-4,0 2.7e-4,0 0.22998,0 0.44807,0.092 0.60831,0.2521 0.16025,0.1603 0.25197,0.3784 0.25197,0.6084 0,0 0,0 0,0 0,0 0,0 0,0"
       style="opacity:1;fill:#8d228d;fill-opacity:1;stroke:none;stroke-width:3.96874928;stroke-miterlimit:4;stroke-dasharray:none;stroke-opacity:1"
       id="path55103"
       inkscape:connector-curvature="0" />
    <path
       d="m -729.88142,-1068.0063 c 0,0.2041 -0.0811,0.3999 -0.22543,0.5443 -9e-5,10e-5 -1.9e-4,2e-4 -2.9e-4,2e-4 -0.14431,0.1442 -0.33996,0.2252 -0.54397,0.2252 -1.3e-4,0 -2.6e-4,0 -4e-4,0 -0.20399,-10e-5 -0.3996,-0.081 -0.54385,-0.2254 -9e-5,-10e-5 -1.8e-4,-2e-4 -2.7e-4,-3e-4 -0.14417,-0.1443 -0.22516,-0.34 -0.22516,-0.544 10e-6,-10e-5 10e-6,-3e-4 10e-6,-4e-4 1.1e-4,-0.2068 0.0829,-0.4013 0.22557,-0.544 0.1427,-0.1426 0.33733,-0.2252 0.5441,-0.2253 1.4e-4,0 2.7e-4,10e-5 4.1e-4,10e-5 0.20675,1e-4 0.40133,0.083 0.54396,0.2255 0.14264,0.1427 0.22531,0.3373 0.22532,0.5441 0,0 0,0 0,0 0,0 0,0 0,0"
       style="opacity:1;fill:#aa336a;fill-opacity:1;stroke:none;stroke-width:3.96874928;stroke-miterlimit:4;stroke-dasharray:none;stroke-opacity:1"
       id="path55105"
       inkscape:connector-curvature="0" />
    <path
       d="m -727.28814,-1068.0063 c 0,0.18 -0.0715,0.3527 -0.19882,0.48 -6e-5,10e-5 -1.2e-4,10e-5 -1.9e-4,2e-4 -0.12728,0.1272 -0.29986,0.1986 -0.47981,0.1986 -9e-5,0 -1.8e-4,0 -2.7e-4,0 -0.17994,0 -0.35249,-0.072 -0.47973,-0.1988 -1.2e-4,-10e-5 -2.4e-4,-2e-4 -3.6e-4,-4e-4 -0.12708,-0.1272 -0.19846,-0.2997 -0.19845,-0.4796 0,-2e-4 0,-4e-4 0,-5e-4 1.6e-4,-0.1836 0.0739,-0.3546 0.19901,-0.4796 0.12511,-0.125 0.29625,-0.1987 0.4798,-0.1987 1.8e-4,0 3.6e-4,0 5.4e-4,0 0.18352,2e-4 0.35459,0.074 0.47961,0.199 0.12503,0.1251 0.19865,0.2962 0.19867,0.4798 0,0 0,0 0,0 0,0 0,0 0,0"
       style="opacity:1;fill:#c64446;fill-opacity:1;stroke:none;stroke-width:3.96874928;stroke-miterlimit:4;stroke-dasharray:none;stroke-opacity:1"
       id="path55107"
       inkscape:connector-curvature="0" />
    <path
       d="m -724.69487,-1068.0063 c 1e-5,0.1559 -0.0619,0.3055 -0.17219,0.4158 -4e-5,0 -7e-5,0 -10e-5,10e-5 -0.11025,0.1102 -0.25976,0.1721 -0.41566,0.1721 -4e-5,0 -8e-5,0 -1.3e-4,0 -0.15589,-10e-5 -0.30538,-0.062 -0.41561,-0.1722 -1.5e-4,-2e-4 -3e-4,-4e-4 -4.5e-4,-5e-4 -0.10998,-0.1102 -0.17175,-0.2596 -0.17175,-0.4153 10e-6,-2e-4 10e-6,-4e-4 10e-6,-7e-4 1.9e-4,-0.1603 0.0649,-0.3078 0.17244,-0.4152 0.10752,-0.1074 0.25516,-0.172 0.41549,-0.172 2.3e-4,0 4.5e-4,0 6.8e-4,0 0.16029,2e-4 0.30786,0.065 0.41527,0.1724 0.1074,0.1075 0.17199,0.2552 0.172,0.4155 0,0 0,0 0,0 0,0 0,0 0,0"
       style="opacity:1;fill:#e25423;fill-opacity:1;stroke:none;stroke-width:3.96874928;stroke-miterlimit:4;stroke-dasharray:none;stroke-opacity:1"
       id="path55109"
       inkscape:connector-curvature="0" />
  </g>
  <g
     id="g55123"
     transform="translate(-65.343199,38.606447)">
    <path
       d="m -722.10159,-1068.0063 c 10e-6,0.1318 -0.0524,0.2583 -0.14558,0.3515 -0.0932,0.093 -0.21966,0.1456 -0.3515,0.1456 -0.13184,0 -0.25827,-0.052 -0.35149,-0.1456 -0.0932,-0.093 -0.14559,-0.2197 -0.14558,-0.3515 4e-5,-0.2745 0.22257,-0.497 0.49707,-0.497 0.2745,0 0.49704,0.2225 0.49708,0.497 0,0 0,0 0,0"
       style="opacity:1;fill:#e95515;fill-opacity:1;stroke:none;stroke-width:3.96874952;stroke-miterlimit:4;stroke-dasharray:none;stroke-opacity:1"
       id="path55113"
       inkscape:connector-curvature="0" />
    <path
       d="m -722.10159,-1068.0063 c 10e-6,0.1318 -0.0524,0.2583 -0.14558,0.3515 -0.0932,0.093 -0.21966,0.1456 -0.3515,0.1456 -0.13184,0 -0.25827,-0.052 -0.35149,-0.1456 -0.0932,-0.093 -0.14559,-0.2197 -0.14558,-0.3515 4e-5,-0.2745 0.22257,-0.497 0.49707,-0.497 0.2745,0 0.49704,0.2225 0.49708,0.497 0,0 0,0 0,0"
       style="opacity:1;fill:#d4442a;fill-opacity:1;stroke:none;stroke-width:3.96874952;stroke-miterlimit:4;stroke-dasharray:none;stroke-opacity:1"
       id="path55115"
       inkscape:connector-curvature="0" />
    <path
       d="m -722.10159,-1068.0063 c 10e-6,0.1318 -0.0524,0.2583 -0.14558,0.3515 -0.0932,0.093 -0.21966,0.1456 -0.3515,0.1456 -0.13184,0 -0.25827,-0.052 -0.35149,-0.1456 -0.0932,-0.093 -0.14559,-0.2197 -0.14558,-0.3515 4e-5,-0.2745 0.22257,-0.497 0.49707,-0.497 0.2745,0 0.49704,0.2225 0.49708,0.497 0,0 0,0 0,0"
       style="opacity:1;fill:#bf3340;fill-opacity:1;stroke:none;stroke-width:3.96874952;stroke-miterlimit:4;stroke-dasharray:none;stroke-opacity:1"
       id="path55117"
       inkscape:connector-curvature="0" />
    <path
       d="m -722.10159,-1068.0063 c 10e-6,0.1318 -0.0524,0.2583 -0.14558,0.3515 -0.0932,0.093 -0.21966,0.1456 -0.3515,0.1456 -0.13184,0 -0.25827,-0.052 -0.35149,-0.1456 -0.0932,-0.093 -0.14559,-0.2197 -0.14558,-0.3515 4e-5,-0.2745 0.22257,-0.497 0.49707,-0.497 0.2745,0 0.49704,0.2225 0.49708,0.497 0,0 0,0 0,0"
       style="opacity:1;fill:#aa2255;fill-opacity:1;stroke:none;stroke-width:3.96874952;stroke-miterlimit:4;stroke-dasharray:none;stroke-opacity:1"
       id="path55119"
       inkscape:connector-curvature="0" />
    <path
       d="m -722.10159,-1068.0063 c 10e-6,0.1318 -0.0524,0.2583 -0.14558,0.3515 -0.0932,0.093 -0.21966,0.1456 -0.3515,0.1456 -0.13184,0 -0.25827,-0.052 -0.35149,-0.1456 -0.0932,-0.093 -0.14559,-0.2197 -0.14558,-0.3515 4e-5,-0.2745 0.22257,-0.497 0.49707,-0.497 0.2745,0 0.49704,0.2225 0.49708,0.497 0,0 0,0 0,0"
       style="opacity:1;fill:#95116a;fill-opacity:1;stroke:none;stroke-width:3.96874952;stroke-miterlimit:4;stroke-dasharray:none;stroke-opacity:1"
       id="path55121"
       inkscape:connector-curvature="0" />
  </g>
</svg>
